<svg width="104" height="48" viewBox="0 0 104 48" fill="none" xmlns="http://www.w3.org/2000/svg">
<path fill-rule="evenodd" clip-rule="evenodd" d="M4.38718 4.38589L4.38589 4.38718C2.64074 6.12836 1.73233 8.35643 1.26912 11.5113C0.801956 14.6931 0.8 18.7159 0.8 23.9956C0.8 29.2754 0.801954 33.2982 1.26913 36.4811C1.73234 39.6371 2.64082 41.8677 4.38654 43.6135L4.38718 43.6141C6.12836 45.3593 8.35643 46.2677 11.5113 46.7309C14.6931 47.198 18.7159 47.2 23.9956 47.2C29.2754 47.2 33.2982 47.198 36.4811 46.7309C39.6371 46.2677 41.8677 45.3592 43.6135 43.6135C45.3593 41.8676 46.2677 39.639 46.7309 36.4843C47.198 33.3025 47.2 29.2798 47.2 23.9956C47.2 18.7115 47.198 14.6888 46.7309 11.507C46.2677 8.35231 45.3593 6.12368 43.6135 4.37783C41.8678 2.63647 39.6392 1.73018 36.4846 1.26807C33.3026 0.801948 29.2797 0.8 23.9956 0.8C18.7115 0.8 14.6888 0.801958 11.5081 1.26912C8.35451 1.73229 6.12848 2.64062 4.38718 4.38589ZM44.1791 3.81215C48 7.633 48 13.4731 48 23.9956C48 34.5182 48 40.3583 44.1791 44.1791C40.3583 48 34.5095 48 23.9956 48C13.4818 48 7.633 48 3.82085 44.1791C0 40.3583 0 34.5095 0 23.9956C0 13.4818 0 7.633 3.82085 3.82085C7.633 0 13.4731 0 23.9956 0C34.5182 0 40.3583 0 44.1791 3.81215Z" fill="black"/>
<path d="M22.9831 39.1655C21.2885 37.8578 20.0388 35.907 19.6363 33.6347H14.1713V9.73187C17.1156 11.2111 19.2126 14.491 19.4668 17.8781L20.2929 24.588L19.8905 24.5237C19.0008 24.5237 18.2383 25.3598 18.2383 26.1959C18.2383 26.9676 18.8314 27.6322 19.5939 27.8037L20.5895 28.0395C22.2417 24.8882 23.1737 21.8012 23.1737 18.757C23.1737 16.0131 22.8136 13.2905 22.7713 10.5036C22.7713 9.26024 23.2373 8.12405 23.9998 7.24512C24.7624 8.14549 25.2284 9.26024 25.2284 10.5036C25.2284 13.2905 24.8259 16.0345 24.8259 18.757C24.8259 21.7797 25.758 24.8882 27.4102 28.0395L28.4057 27.8037C29.1683 27.6322 29.7614 26.9676 29.7614 26.1959C29.7614 25.3598 28.9988 24.5237 28.1092 24.5237L27.7067 24.588L28.5328 17.8781C28.9353 14.491 30.8841 11.2111 33.8284 9.73187V33.6347H28.3634C27.9609 35.8856 26.7747 37.9222 25.0166 39.1655C24.6141 39.4657 24.254 39.8301 24.021 40.3017C23.7456 39.8087 23.3855 39.4657 22.9831 39.1655ZM16.7555 25.3812C16.9885 24.4809 17.6452 23.7091 18.4501 23.2375L17.7934 17.7066C17.5604 15.9916 16.8614 14.4481 15.8023 13.1833V25.3598H16.7555V25.3812ZM19.5304 31.9625C19.5304 31.1265 19.6575 30.3547 19.8269 29.583L19.0644 29.4115C17.9417 29.047 17.0732 28.1681 16.7767 27.0319H15.8447V31.9625H19.5304ZM23.1525 31.9625C23.1525 30.955 22.39 30.0546 21.3944 29.9474C21.225 30.5905 21.0979 31.2551 21.0979 31.9625H23.1525ZM23.1525 33.6347H21.3309C21.6274 34.9424 22.2629 36.1214 23.1525 37.1504V33.6347ZM25.7368 28.4682C25.0378 27.1605 24.3811 25.7885 23.9787 24.3737C23.5762 25.81 22.9195 27.1605 22.2205 28.4682C22.9195 28.6397 23.5126 29.1114 23.9787 29.6473C24.4447 29.1114 25.0378 28.6397 25.7368 28.4682ZM26.8594 31.9625C26.8594 31.2551 26.7323 30.5905 26.5629 29.9474C25.5673 30.076 24.8048 30.955 24.8048 31.9625H26.8594ZM26.6264 33.6347H24.8048V37.1504C25.6944 36.1214 26.3299 34.9424 26.6264 33.6347ZM32.155 31.9625V27.0319H31.223C30.9264 28.1681 30.058 29.047 28.9353 29.4115L28.1727 29.583C28.3422 30.3547 28.4693 31.1265 28.4693 31.9625H32.155ZM32.155 25.3812V13.2047C31.0959 14.4481 30.3333 15.9916 30.1639 17.728L29.5072 23.2589C30.3333 23.7305 30.9688 24.5023 31.2018 25.4027H32.155V25.3812Z" fill="black"/>
<path d="M80 0.754192C90.3493 0.754192 96.0516 0.754192 99.6487 4.35269C103.247 7.95118 103.247 13.6521 103.247 24.0014C103.247 34.3506 103.247 40.0529 99.6487 43.6501C96.0516 47.2472 90.3493 47.2472 80 47.2472C69.6507 47.2472 63.9484 47.2472 60.3513 43.6501C56.7528 40.0516 56.7528 34.3506 56.7528 24C56.7528 13.6507 56.7528 7.94844 60.3513 4.35132C63.9484 0.754192 69.6507 0.754192 80 0.754192ZM80 0C69.4837 0 63.6364 0 59.8189 3.81887C56 7.63773 56 13.4837 56 24C56 34.5163 56 40.3636 59.8189 44.1811C63.6377 48 69.4837 48 80 48C90.5163 48 96.3636 48 100.181 44.1811C104 40.3623 104 34.5163 104 24C104 13.4837 104 7.63773 100.181 3.81887C96.3636 0 90.5163 0 80 0Z" fill="black"/>
<path fill-rule="evenodd" clip-rule="evenodd" d="M56 24.0001V23.9536H104V24.0001C104 34.5163 104 40.3624 100.181 44.1812C96.3636 48.0001 90.5163 48.0001 80 48.0001C69.4824 48.0001 63.6364 48.0001 59.8189 44.1812C56 40.3637 56 34.5177 56 24.0001ZM92.6858 38.7374L92.7083 38.7631C92.7428 38.8017 92.777 38.8412 92.8112 38.8808L92.8113 38.8809C92.9358 39.0249 93.0616 39.1704 93.2103 39.2816C93.4487 39.4604 93.5869 39.7049 93.7282 39.9547C93.8228 40.1219 93.9187 40.2914 94.0468 40.4454C94.0252 40.455 94.0071 40.4643 93.9914 40.4723L93.9914 40.4723C93.9586 40.489 93.9368 40.5002 93.9167 40.4976L93.9027 40.4962L93.9026 40.4962C93.7584 40.4818 93.6108 40.467 93.4668 40.4417C93.3962 40.4305 93.3553 40.3745 93.3478 40.2999C93.3404 40.2104 93.3292 40.1209 93.3144 40.009C93.2349 40.0515 93.163 40.0921 93.0825 40.1376L93.0824 40.1376L92.9797 40.1955C92.9943 40.1637 93.0088 40.1353 93.0223 40.1087C93.0468 40.0605 93.0681 40.0187 93.0801 39.9754C93.0927 39.925 93.0951 39.8729 93.0976 39.818C93.0988 39.7916 93.1 39.7645 93.1024 39.7367C93.0291 39.7345 92.9933 39.7763 92.9573 39.8183C92.9312 39.8487 92.9051 39.8792 92.8645 39.8933C92.8626 39.8856 92.8604 39.8782 92.8583 39.871C92.8523 39.8503 92.8469 39.8316 92.8496 39.815C92.8831 39.6509 92.8236 39.5091 92.7195 39.3972C92.6005 39.2666 92.463 39.1398 92.318 39.0354C92.1247 38.8986 91.9248 38.7685 91.7249 38.6384L91.7249 38.6384L91.7248 38.6383C91.6248 38.5733 91.5248 38.5082 91.4256 38.4423C91.1022 38.2296 90.7415 38.1513 90.3623 38.1215C90.0463 38.0953 89.7265 38.058 89.4105 38.0133C89.347 38.0042 89.2863 37.977 89.225 37.9496C89.1857 37.9321 89.1462 37.9145 89.1056 37.9014C88.9234 37.838 88.7413 37.782 88.5554 37.726C88.4587 37.6962 88.3583 37.6701 88.2282 37.6365C88.5256 37.3717 88.652 37.0397 88.771 36.689C88.7959 36.6986 88.8187 36.7053 88.8402 36.7115C88.8604 36.7173 88.8794 36.7228 88.8974 36.7301C89.2023 36.8457 89.5072 36.9613 89.812 37.0807C89.8681 37.1038 89.9231 37.1297 89.978 37.1555L89.9781 37.1556L89.9782 37.1556C90.0652 37.1966 90.1522 37.2375 90.2433 37.2672C90.3864 37.3157 90.5314 37.3586 90.6764 37.4015L90.6765 37.4015C90.8215 37.4444 90.9665 37.4873 91.1096 37.5358C91.3438 37.6141 91.5818 37.6962 91.8049 37.7969C92.0688 37.9163 92.2659 38.114 92.4109 38.3751C92.4836 38.507 92.5852 38.6228 92.6858 38.7374ZM93.4557 40.5053L93.4555 40.5053C93.4042 40.5 93.3512 40.4945 93.2958 40.4902C93.2958 40.6692 93.3144 40.8259 93.4742 40.8893C93.6638 40.9639 93.8609 41.0162 94.058 41.0647C94.1171 41.0775 94.1779 41.0744 94.2393 41.0712C94.2668 41.0698 94.2944 41.0684 94.3219 41.0684C94.3331 40.7662 94.2327 40.6133 93.9724 40.5611C93.8861 40.5437 93.7948 40.5363 93.704 40.5288H93.704C93.658 40.5251 93.6122 40.5213 93.5672 40.5163C93.5308 40.5131 93.4937 40.5093 93.4557 40.5053ZM90.088 26.774C90.0888 26.8213 90.0896 26.8685 90.0872 26.9158C90.0723 27.162 90.0277 27.1993 89.7711 27.1732C89.8083 26.9382 89.8752 26.8337 90.0872 26.7031C90.0872 26.7268 90.0876 26.7504 90.088 26.774ZM92.9537 41.6988C92.831 41.7399 92.7195 41.7249 92.6005 41.7063C92.4815 41.6914 92.3588 41.6839 92.2399 41.6914C92.1506 41.6951 92.132 41.7585 92.1841 41.8294L92.1927 41.84C92.2086 41.8596 92.2253 41.8802 92.2473 41.8928C92.5708 42.1315 92.9202 42.2919 93.3701 42.2285C93.3655 42.1938 93.362 42.1598 93.3585 42.1265C93.3508 42.0525 93.3435 41.9821 93.3255 41.9152C93.2772 41.7063 93.1582 41.6354 92.9537 41.6988ZM90.6932 27.4902C90.6374 27.6431 90.5593 27.7065 90.4404 27.7103C90.2321 27.7103 90.0016 27.5834 89.8566 27.3783C90.0851 27.3725 90.2978 27.4141 90.5105 27.4556C90.5713 27.4675 90.632 27.4794 90.6932 27.4902ZM77.7472 37.7186C77.6394 37.7671 77.5325 37.8165 77.4256 37.8659L77.4254 37.866L77.4254 37.866L77.4254 37.8661L77.4254 37.8661L77.4253 37.8661C77.3185 37.9154 77.2117 37.9648 77.104 38.0133C77.0929 38.0179 77.0817 38.0228 77.0706 38.0277L77.0705 38.0277C77.0371 38.0424 77.0036 38.0571 76.9702 38.0655C76.9072 38.0818 76.8442 38.0991 76.7812 38.1165C76.6283 38.1584 76.4748 38.2006 76.3195 38.2296C75.9291 38.3005 75.5313 38.3602 75.1372 38.4161C74.9773 38.4385 74.8695 38.4945 74.784 38.6437C74.6204 38.9197 74.4382 39.1883 74.2412 39.4382C73.9735 39.7777 73.6129 39.9829 73.1779 40.0463C73.137 40.0537 73.0923 40.0612 73.0291 40.0687C73.1184 40.1097 73.1816 40.1395 73.2596 40.1768C73.1997 40.2369 73.1243 40.2631 73.0499 40.2889C72.9536 40.3223 72.859 40.3551 72.8023 40.4603C72.8559 40.4563 72.9074 40.4534 72.9602 40.4504C73.0062 40.4478 73.0533 40.4452 73.1035 40.4417C73.0765 40.4651 73.0507 40.486 73.0263 40.5059C72.9767 40.5462 72.9326 40.582 72.8953 40.6245C72.7837 40.7513 72.6462 40.8184 72.4826 40.8147C72.3822 40.8147 72.3264 40.8595 72.2781 40.9341C72.2335 41.0049 72.1852 41.0758 72.1369 41.1466L72.1368 41.1467C72.1294 41.143 72.1219 41.1392 72.1108 41.1355C72.127 41.0867 72.1423 41.0388 72.1581 40.9897L72.1583 40.989L72.1583 40.9889L72.1584 40.9887C72.175 40.9367 72.1921 40.8832 72.2112 40.8259C72.0253 40.8557 71.9175 40.9565 71.8505 41.0982C71.7502 41.3108 71.6646 41.5309 71.5791 41.751C71.57 41.7716 71.5665 41.7951 71.5625 41.8213C71.56 41.8378 71.5574 41.8554 71.5531 41.8741L71.5718 41.8737C71.7168 41.8702 71.8477 41.8672 71.9546 41.792C72.0029 41.7564 72.0373 41.7015 72.0673 41.6537C72.0812 41.6315 72.0941 41.6109 72.1071 41.5943C72.1536 41.5827 72.1992 41.5733 72.2437 41.5641L72.2438 41.5641C72.3274 41.5468 72.4074 41.5303 72.4826 41.5011C72.8953 41.3332 73.2448 41.0907 73.5534 40.7476C73.9809 40.2701 74.4605 39.8374 74.9402 39.4084C75.2934 39.0951 75.6838 38.8265 76.1448 38.6847C76.3641 38.6176 76.5798 38.5355 76.7657 38.3938C76.788 38.3751 76.8215 38.3639 76.8475 38.3602C77.0668 38.3378 77.249 38.2259 77.4238 38.1103C77.6208 37.9797 77.8179 37.8454 78.0075 37.7111C78.0327 37.6934 78.0477 37.6637 78.0628 37.6335C78.07 37.6193 78.0772 37.6049 78.0856 37.5918L78.0521 37.5806C77.9517 37.6216 77.8476 37.6701 77.7472 37.7186ZM69.1996 41.128C69.2963 40.9676 69.419 40.8445 69.6569 40.8184C69.645 40.8462 69.6329 40.8738 69.6208 40.9012C69.5051 41.1643 69.3962 41.412 69.5342 41.7025C69.3892 41.8256 69.2442 41.9337 69.0509 41.9972C69.0477 41.9731 69.0431 41.9517 69.0389 41.9323C69.0334 41.9066 69.0286 41.8841 69.0286 41.8629C69.0323 41.6055 69.0695 41.3556 69.1996 41.128ZM89.8381 27.8185C90.0314 28.0124 90.2731 28.1094 90.5519 28.0535C90.5556 28.0442 90.5603 28.0358 90.5649 28.0274C90.5696 28.019 90.5742 28.0106 90.5779 28.0013C90.5626 27.9906 90.5477 27.9796 90.5328 27.9687C90.5009 27.9451 90.4697 27.9221 90.4367 27.9043L90.3455 27.8496L90.3453 27.8495L90.3452 27.8494L90.3451 27.8494C90.1831 27.7522 90.0225 27.6559 89.8567 27.5648C89.7451 27.5051 89.6299 27.4529 89.5109 27.4119L89.4993 27.4079C89.446 27.3896 89.3829 27.3679 89.3101 27.4305L89.3579 27.4641C89.423 27.51 89.4813 27.551 89.5443 27.5872C89.6559 27.6469 89.7451 27.7252 89.8381 27.8185ZM68.1623 32.638C67.731 32.6604 67.3704 32.5074 67.0395 32.2538C67.0285 32.2443 67.0188 32.2335 67.008 32.2214C66.9931 32.2049 66.976 32.1858 66.9503 32.1642C66.9761 32.1642 66.9985 32.1632 67.0187 32.1623C67.0536 32.1608 67.0819 32.1595 67.1101 32.1642C67.2269 32.1814 67.3437 32.2006 67.4607 32.2198L67.4608 32.2198C67.6232 32.2464 67.7862 32.2731 67.9504 32.2948C68.1065 32.3172 68.259 32.2911 68.4114 32.2351C68.7758 32.1008 69.1513 32.0822 69.538 32.1344C69.8614 32.1791 70.17 32.1381 70.4712 31.9852C70.921 31.7576 71.3932 31.5935 71.8952 31.5226C72.4937 31.4368 73.0626 31.5301 73.6129 31.7688C73.9921 31.9367 74.3379 32.1568 74.6539 32.4253C74.9699 32.6902 75.2897 32.9513 75.6094 33.2087C75.7247 33.2982 75.8474 33.3803 75.97 33.4549C76.1708 33.578 76.379 33.6862 76.6542 33.6862C76.6261 33.7357 76.5994 33.7838 76.5734 33.8308L76.5734 33.8309C76.5131 33.9397 76.4562 34.0423 76.3939 34.1413C76.3307 34.2383 76.2229 34.2756 76.115 34.2979L76.0822 34.3055C76.0271 34.3184 75.9739 34.3309 75.918 34.3278C75.7395 34.3203 75.5945 34.4061 75.4495 34.4956C75.3592 34.5514 75.2697 34.6104 75.1799 34.6696C75.0775 34.7372 74.9745 34.8051 74.8695 34.8687C74.7654 34.9321 74.6502 34.9843 74.5275 35.0253C74.5832 34.8538 74.6985 34.7418 74.8435 34.656C74.9273 34.6051 75.0094 34.5524 75.1015 34.4932L75.1017 34.4931C75.1444 34.4657 75.1893 34.4368 75.2376 34.4061C75.1149 34.3502 75.0257 34.3576 74.9476 34.3949C74.8435 34.4434 74.7431 34.5031 74.6502 34.5665C74.5857 34.6108 74.5235 34.6574 74.4615 34.7038L74.4615 34.7039C74.3877 34.7592 74.3143 34.8143 74.2375 34.8649C74.1297 34.9358 74.0107 34.9992 73.8285 34.9955C73.9 34.931 73.9667 34.8634 74.0324 34.7968C74.2363 34.5901 74.4301 34.3936 74.7282 34.3315C74.6353 34.283 74.5423 34.2867 74.4568 34.3166C74.3564 34.3502 74.2561 34.3949 74.1594 34.4472C74.059 34.5012 73.9586 34.5572 73.8582 34.6132C73.7578 34.6691 73.6575 34.7251 73.5571 34.7791C73.5385 34.7903 73.5162 34.7941 73.4864 34.7903C73.5308 34.7548 73.5748 34.7188 73.6187 34.6828L73.6188 34.6827L73.6189 34.6827C73.8699 34.4773 74.1202 34.2725 74.4271 34.1487C74.3007 34.1301 74.1891 34.1487 74.0776 34.201C74.0014 34.2381 73.924 34.2714 73.8468 34.3045L73.8467 34.3046C73.792 34.3281 73.7374 34.3515 73.6835 34.3763C73.6056 34.4126 73.5297 34.451 73.4528 34.4899L73.3749 34.5292C73.3117 34.5628 73.2485 34.5964 73.1555 34.6449C73.2002 34.4695 73.2634 34.3464 73.3935 34.2867C73.5445 34.2181 73.6978 34.1583 73.8415 34.1021L73.8415 34.1021C73.8853 34.085 73.9281 34.0683 73.9698 34.0517C73.5363 33.9915 73.1394 34.1429 72.7368 34.2965C72.5662 34.3616 72.3945 34.427 72.2186 34.477C72.3264 34.3427 72.6387 34.1002 72.8581 34.0256C73.0334 33.9679 73.216 33.9249 73.4021 33.8811C73.4805 33.8627 73.5595 33.8441 73.6389 33.8242C73.598 33.7123 73.4939 33.6638 73.3861 33.6526C73.2522 33.6414 73.1035 33.634 72.9771 33.6787C72.8025 33.7401 72.6334 33.8141 72.4648 33.8878L72.4648 33.8878L72.4648 33.8878C72.3569 33.9349 72.2493 33.982 72.1405 34.0256C71.9658 34.0965 71.7911 34.1562 71.6126 34.2159C71.5605 34.2345 71.5048 34.2308 71.4416 34.2084C71.4976 34.1743 71.5532 34.1395 71.6089 34.1047L71.6091 34.1045L71.6091 34.1045L71.6091 34.1045C71.7418 34.0216 71.8743 33.9388 72.0104 33.8652C72.2112 33.7571 72.4194 33.6489 72.635 33.5817C72.7804 33.5382 72.9311 33.5175 73.0821 33.4968L73.0822 33.4968L73.0822 33.4968C73.1513 33.4873 73.2206 33.4778 73.2894 33.4661C73.2913 33.4605 73.2931 33.454 73.295 33.4475C73.2968 33.4409 73.2987 33.4344 73.3005 33.4288C73.287 33.4174 73.2737 33.404 73.2606 33.3907L73.2606 33.3907C73.2307 33.3603 73.2014 33.3307 73.1704 33.3281L73.0925 33.3233L73.0925 33.3233C72.8724 33.3095 72.65 33.2957 72.4305 33.3057C72.2149 33.3169 72.0216 33.4213 71.8431 33.537C71.4973 33.7645 71.1107 33.8354 70.7128 33.8876C70.6927 33.8901 70.6708 33.8858 70.6495 33.8816L70.6495 33.8816C70.6394 33.8796 70.6295 33.8776 70.6199 33.8764V33.8317C70.9471 33.7906 71.2371 33.6601 71.5048 33.4773C71.6089 33.4064 71.713 33.3355 71.8245 33.2796C72.2 33.0856 72.5979 33.0483 73.0068 33.1378C73.0271 33.1429 73.0508 33.1445 73.0756 33.1462C73.0872 33.147 73.0991 33.1478 73.1109 33.149C73.0775 32.9961 73.0329 32.9476 72.873 32.9513C72.6685 32.955 72.4603 32.97 72.2595 32.9998C72.0141 33.0371 71.7725 33.0893 71.5308 33.1453C71.4622 33.1632 71.3985 33.1932 71.3337 33.2236C71.3177 33.2311 71.3016 33.2386 71.2854 33.246C70.9809 33.3778 70.6571 33.4376 70.3354 33.497C70.2839 33.5065 70.2325 33.516 70.1812 33.5258C69.9209 33.5743 69.6569 33.6041 69.3818 33.619C69.3935 33.6102 69.4046 33.6009 69.4156 33.5916L69.4156 33.5916L69.4156 33.5916C69.4326 33.5773 69.4493 33.5632 69.4673 33.5519C69.6941 33.4064 69.9432 33.343 70.2035 33.3094C70.2456 33.3044 70.2878 33.3003 70.3299 33.2962C70.4142 33.2879 70.4984 33.2796 70.5827 33.2647C70.6645 33.2497 70.7463 33.2199 70.8244 33.1901C70.9025 33.1565 70.9805 33.1192 71.0512 33.0744C71.5457 32.7723 72.0885 32.6865 72.6536 32.6902H72.9027C72.8655 32.6044 72.8061 32.5895 72.7503 32.5857C72.4454 32.5708 72.1368 32.5634 71.8282 32.5559C71.8059 32.5559 71.7836 32.5659 71.7613 32.5758C71.7502 32.5808 71.739 32.5857 71.7278 32.5895C71.6534 32.6157 71.5792 32.6425 71.5051 32.6693C71.3055 32.7414 71.1068 32.8131 70.9062 32.873C70.5939 32.9662 70.2704 32.97 69.9507 32.9476C69.59 32.9215 69.2554 32.9849 68.9282 33.1341C68.8092 33.1863 68.6828 33.2199 68.5415 33.2348C68.5534 33.2255 68.5653 33.2158 68.5773 33.2059L68.5774 33.2059C68.5992 33.188 68.6217 33.1696 68.6457 33.1527L68.6787 33.1305L68.6787 33.1305L68.6787 33.1304C68.9172 32.9695 69.1604 32.8054 69.4376 32.7163C69.5677 32.6753 69.7053 32.6454 69.8428 32.6454C70.17 32.6417 70.4935 32.6081 70.8132 32.5335C70.9954 32.4925 71.1664 32.4216 71.3189 32.3022C71.4416 32.2053 71.594 32.1754 71.7464 32.1791C71.9233 32.1818 72.0983 32.1939 72.2741 32.206L72.2742 32.206L72.2743 32.206C72.346 32.2109 72.4179 32.2159 72.49 32.2202C72.5495 32.2202 72.609 32.2202 72.6722 32.2053C72.5807 32.1463 72.4777 32.1305 72.3759 32.1148L72.3339 32.1083C71.9472 32.0449 71.5717 32.0971 71.2036 32.2015C71.1587 32.2146 71.1135 32.227 71.0683 32.2394L71.0683 32.2394L71.0682 32.2394C70.8813 32.2906 70.6938 32.3419 70.5232 32.444C70.4786 32.4701 70.4154 32.4738 70.3634 32.4701C70.1775 32.4589 69.9916 32.4403 69.8057 32.4179C69.6607 32.403 69.5194 32.3992 69.3744 32.4328C68.9766 32.5261 68.575 32.6156 68.1623 32.638ZM85.2278 31.877C84.998 31.9992 84.7482 32.0658 84.4988 32.1324C84.3448 32.1735 84.1908 32.2146 84.0417 32.2687C83.9005 32.3209 83.774 32.3806 83.6662 32.4776C83.6044 32.5334 83.5458 32.5926 83.4868 32.6522L83.4868 32.6522C83.3328 32.8077 83.1765 32.9655 82.9561 33.0707C83.2089 33.1453 83.4171 33.1043 83.6179 33.0073C83.8224 32.9066 83.986 32.7536 84.1273 32.5783C84.2908 32.3694 84.5251 32.2911 84.7742 32.2538C84.7974 32.2514 84.8207 32.2564 84.8439 32.2613C84.8578 32.2643 84.8718 32.2673 84.8857 32.2687C84.8848 32.2749 84.8842 32.2806 84.8836 32.2859C84.8816 32.3028 84.8802 32.3143 84.8746 32.3172L84.865 32.3251C84.8495 32.3381 84.8336 32.3514 84.8151 32.3545C84.6478 32.3731 84.5176 32.4664 84.4173 32.5895C84.2869 32.7512 84.1611 32.9175 84.034 33.0854L84.0339 33.0855L84.0339 33.0855C83.9616 33.1809 83.889 33.2769 83.8149 33.3728C84.0938 33.3057 84.2537 33.2124 84.421 33.011C84.479 32.9416 84.533 32.8682 84.5869 32.7948C84.6229 32.7459 84.6589 32.6969 84.6961 32.6492L84.7016 32.6423L84.7016 32.6423C84.73 32.6065 84.7618 32.5664 84.8002 32.5559C84.8776 32.5326 84.9568 32.5147 85.0452 32.4947L85.0453 32.4947C85.0843 32.4859 85.1251 32.4767 85.1683 32.4664C85.1251 32.5197 85.0831 32.5696 85.0426 32.6178C84.9612 32.7147 84.8858 32.8044 84.8188 32.8991C84.7147 33.0446 84.618 33.1975 84.5697 33.3654C84.6255 33.4363 84.6775 33.4139 84.7184 33.3766C84.7853 33.3169 84.8523 33.2535 84.908 33.1826C84.9719 33.1 85.0323 33.0162 85.093 32.9319L85.093 32.9319C85.142 32.864 85.1912 32.7958 85.2426 32.7275C85.2706 32.6918 85.302 32.6596 85.3417 32.619L85.3417 32.619C85.36 32.6001 85.3802 32.5795 85.4025 32.5559C85.4232 32.6906 85.3968 32.8069 85.3705 32.9226C85.3495 33.0152 85.3286 33.1076 85.3319 33.2087C85.3531 33.1839 85.3709 33.165 85.3866 33.1483L85.3866 33.1483C85.4039 33.13 85.4186 33.1144 85.4323 33.0968C85.5859 32.9139 85.6675 32.6966 85.7495 32.478L85.7594 32.4515C86.1573 31.3958 86.5625 30.3439 87.0273 29.3143C87.202 28.9301 87.3916 28.5683 87.7337 28.296C87.9348 28.1345 88.1243 27.9595 88.3133 27.785L88.3137 27.7847C88.3867 27.7173 88.4596 27.6499 88.5331 27.5835C88.5516 27.5648 88.5702 27.5424 88.6074 27.4977C88.2096 27.5574 87.8564 27.6469 87.5069 27.7625C87.4846 27.77 87.4623 27.7849 87.4437 27.7998C87.2932 27.9135 87.1437 28.0263 86.9942 28.139C86.8444 28.2519 86.6946 28.3649 86.5439 28.4787C86.4547 28.5459 86.3655 28.5944 86.2502 28.6093C86.1147 28.6274 85.9817 28.6578 85.8471 28.6885C85.8155 28.6957 85.7838 28.7029 85.752 28.71C85.2984 28.8182 84.9006 29.0234 84.6329 29.4262C84.5759 29.5132 84.5123 29.597 84.4487 29.6807L84.4486 29.6807C84.4168 29.7226 84.385 29.7644 84.354 29.8067C84.3325 29.8364 84.313 29.868 84.294 29.8987L84.294 29.8987C84.2867 29.9105 84.2795 29.9222 84.2723 29.9335C84.276 29.9391 84.2797 29.9438 84.2834 29.9485L84.2834 29.9485C84.2871 29.9531 84.2909 29.9578 84.2946 29.9634C84.3158 29.9563 84.3371 29.9499 84.3582 29.9436C84.4036 29.93 84.4485 29.9166 84.4916 29.8962C84.856 29.7246 85.1906 29.5083 85.4769 29.2248C85.7297 28.9749 86.0457 28.8406 86.3878 28.7585C86.4844 28.7361 86.5923 28.7137 86.6964 28.8294C86.3841 28.9338 86.0903 29.0345 85.8412 29.2248C85.5921 29.415 85.3951 29.6575 85.198 29.9074C85.2687 29.9 85.3282 29.885 85.3876 29.8552C85.6256 29.7433 85.8412 29.5978 86.0309 29.415C86.2539 29.1987 86.5291 29.1353 86.8302 29.1427C86.7951 29.1639 86.757 29.1776 86.7188 29.1914C86.6963 29.1995 86.6738 29.2077 86.6518 29.2173C86.5737 29.2509 86.4956 29.2882 86.4287 29.3367C86.3457 29.3984 86.2677 29.4677 86.1907 29.5363L86.1424 29.5792C86.0494 29.6575 85.9602 29.7396 85.871 29.8216C85.8521 29.8406 85.8392 29.8656 85.8247 29.8937C85.8163 29.9099 85.8075 29.9271 85.7966 29.9447C85.9342 29.9783 86.0197 29.9298 86.0978 29.8403C86.2837 29.6239 86.5253 29.609 86.8265 29.6388C86.7726 29.6943 86.7231 29.7468 86.6759 29.7968L86.6758 29.797C86.5927 29.885 86.5167 29.9656 86.4361 30.0417C86.2577 30.2096 86.0755 30.3663 85.8189 30.3961C85.7997 30.3982 85.7816 30.409 85.7634 30.42C85.75 30.428 85.7365 30.4361 85.7223 30.4409C85.6939 30.4513 85.6655 30.4625 85.637 30.4737C85.5535 30.5065 85.4689 30.5398 85.3802 30.5565C85.2501 30.5826 85.1162 30.5901 84.9824 30.5901C84.3578 30.5938 83.841 30.8586 83.3799 31.2615L83.3731 31.2674C83.3226 31.3106 83.266 31.359 83.2944 31.4518C83.3024 31.4548 83.3104 31.4583 83.3185 31.4619C83.3404 31.4716 83.3629 31.4816 83.3874 31.4816C83.6476 31.4965 83.8893 31.4592 84.1087 31.2988C84.566 30.9594 85.0493 30.6796 85.6293 30.6199C85.6382 30.6187 85.6473 30.617 85.6563 30.6154C85.7038 30.6066 85.7517 30.5977 85.7892 30.6572C85.7172 30.6911 85.6448 30.7236 85.5727 30.756L85.5726 30.756C85.4066 30.8306 85.242 30.9045 85.0865 30.9929C84.8523 31.1235 84.6849 31.3324 84.5474 31.5749C84.564 31.5764 84.5769 31.5791 84.5874 31.5813C84.6028 31.5846 84.6129 31.5868 84.6217 31.5823C84.7053 31.5591 84.7891 31.5367 84.8729 31.5143C85.0986 31.4539 85.3242 31.3936 85.5438 31.3175C85.8189 31.2242 86.042 31.0489 86.2093 30.8027C86.2155 30.7944 86.2239 30.7873 86.234 30.7788C86.2422 30.772 86.2514 30.7642 86.2614 30.7542C86.2391 30.9407 86.1833 31.0601 86.0383 31.2354C85.8189 31.5189 85.5326 31.7166 85.2278 31.877ZM91.9164 40.1656C92.1878 40.3969 92.4258 40.6468 92.5856 40.9676C92.6897 41.1728 92.8385 41.3481 93.0467 41.4936C92.9867 41.5121 92.9324 41.5306 92.8813 41.5481C92.8088 41.5728 92.7425 41.5955 92.6749 41.613C92.4778 41.6615 92.37 41.6167 92.2585 41.4451C92.2101 41.3742 92.1581 41.3183 92.0874 41.2661C92.0292 41.2236 91.9823 41.1622 91.9333 41.0981C91.9134 41.0721 91.8932 41.0457 91.8718 41.0199C91.811 41.0397 91.7731 41.0926 91.7347 41.1465C91.6791 41.2242 91.6222 41.3039 91.4926 41.2884C91.506 41.251 91.5253 41.2145 91.5446 41.1781C91.6001 41.0732 91.6553 40.9692 91.5669 40.8445C91.5292 40.8823 91.4925 40.9182 91.4563 40.9536C91.421 40.9881 91.3861 41.0222 91.3513 41.0572C91.3438 41.0497 91.3327 41.0422 91.3215 41.0348C91.3268 41.0153 91.3304 40.9967 91.334 40.9785C91.3379 40.9584 91.3417 40.9388 91.3476 40.9191C91.4145 40.714 91.3736 40.5237 91.2658 40.3447C91.1579 40.1656 91.0055 40.0276 90.8382 39.9045C90.5705 39.7105 90.2805 39.5651 89.9793 39.4345C89.9013 39.4009 89.8269 39.3599 89.76 39.3114C89.5704 39.1771 89.351 39.1249 89.1279 39.1137C88.8677 39.1013 88.6076 39.1018 88.3452 39.1023C88.2927 39.1024 88.24 39.1025 88.1873 39.1025C88.0807 39.1025 87.9729 39.1065 87.8645 39.1105C87.7913 39.1132 87.7179 39.1159 87.6445 39.1174C87.6352 39.1174 87.6256 39.1179 87.6161 39.1184C87.5875 39.1198 87.559 39.1212 87.5366 39.11C87.2445 38.9726 86.9299 38.9601 86.6193 38.9479C86.5505 38.9451 86.4819 38.9424 86.4138 38.9384C85.9751 38.9123 85.5327 38.8899 85.0902 38.9309C84.8969 38.9496 84.7036 38.9346 84.5288 38.8153C84.4991 38.2595 84.5325 37.7149 84.8634 37.2299C84.8569 37.2255 84.849 37.2199 84.8414 37.2144C84.8361 37.2106 84.8308 37.2069 84.8262 37.2038C84.8121 37.2147 84.7973 37.2254 84.7824 37.236C84.7465 37.2618 84.7102 37.2878 84.6812 37.3194C84.5771 37.4388 84.4805 37.5582 84.4284 37.7149C84.3912 37.823 84.3243 37.9275 84.2462 38.0058C84.0269 38.2296 83.7443 38.3527 83.4618 38.4646C83.4543 38.4534 83.4432 38.4385 83.432 38.4273C83.4878 38.3639 83.5473 38.3005 83.6068 38.2408C83.6597 38.1867 83.713 38.1329 83.7662 38.079C83.9258 37.9174 84.0855 37.7559 84.2388 37.588C84.3764 37.4388 84.4024 37.3791 84.4433 37.1963C83.9971 37.6626 83.5436 38.0767 82.9673 38.3415L82.9673 38.3414C83.0528 38.2408 83.1383 38.1401 83.2275 38.0394C83.2508 38.0133 83.2742 37.9874 83.2977 37.9615C83.3681 37.8839 83.4385 37.8062 83.5027 37.7223C83.2312 37.8864 82.9524 38.0394 82.6512 38.1513C82.7345 38.0564 82.8213 37.965 82.9079 37.8736C83.1073 37.6633 83.3062 37.4535 83.4618 37.2038C83.023 37.5955 82.5843 37.9872 81.9597 38.1103C82.1149 37.9591 82.2791 37.8233 82.4416 37.6888C82.6722 37.498 82.8996 37.3098 83.0937 37.0844C82.9524 37.1068 82.8371 37.1852 82.7293 37.2672C82.6699 37.3138 82.6121 37.3626 82.5543 37.4115C82.4639 37.4879 82.3733 37.5645 82.2757 37.6328C82.1332 37.7313 81.9827 37.8189 81.8309 37.9073C81.8044 37.9227 81.778 37.9381 81.7515 37.9536C81.7217 37.9722 81.6771 37.9722 81.6288 37.9685C81.6888 37.922 81.7499 37.8767 81.811 37.8314C82.1171 37.6046 82.4219 37.3786 82.5769 37.0024C82.5472 37.0305 82.519 37.0601 82.4906 37.0898C82.455 37.1272 82.4191 37.1648 82.3798 37.2001C82.3454 37.2309 82.3111 37.262 82.2768 37.2931C82.1407 37.4165 82.0041 37.5405 81.8556 37.6477C81.6808 37.7745 81.4726 37.8417 81.2458 37.8268C81.2855 37.7926 81.3256 37.7588 81.3656 37.725C81.566 37.5561 81.7664 37.3872 81.9151 37.1665C81.8519 37.2084 81.7894 37.2513 81.7269 37.2942C81.3885 37.5267 81.0512 37.7583 80.6212 37.8118C80.7346 37.713 80.849 37.6141 80.9633 37.5152C81.0776 37.4164 81.192 37.3176 81.3053 37.2187C81.1825 37.2655 81.0661 37.3273 80.9494 37.3892C80.7588 37.4904 80.5675 37.592 80.3461 37.6291C80.4242 37.56 80.5013 37.492 80.5785 37.4239C80.6556 37.3558 80.7328 37.2877 80.8108 37.2187C80.8071 37.2131 80.8034 37.2066 80.7997 37.2001C80.796 37.1935 80.7923 37.187 80.7885 37.1814C80.7503 37.2 80.712 37.2198 80.6734 37.2398C80.5959 37.2799 80.5173 37.3206 80.4353 37.353C80.3516 37.3861 80.2661 37.4123 80.18 37.4386C80.14 37.4508 80.0999 37.4631 80.0598 37.4761C80.0561 37.4649 80.0487 37.4537 80.0412 37.4425C80.1131 37.3807 80.1868 37.3207 80.2597 37.2612C80.2924 37.2345 80.325 37.208 80.3573 37.1814C80.3535 37.174 80.3461 37.1628 80.3424 37.1516C80.229 37.1889 80.1147 37.2252 80.0004 37.2616C79.886 37.298 79.7717 37.3344 79.6583 37.3717C79.6564 37.3661 79.6536 37.3605 79.6508 37.3549C79.6481 37.3493 79.6453 37.3437 79.6434 37.3381C79.6789 37.3046 79.7155 37.2711 79.758 37.2323C79.7911 37.202 79.8278 37.1685 79.8702 37.1292C79.7586 37.1385 79.6665 37.1787 79.5777 37.2174C79.489 37.2561 79.4035 37.2933 79.3051 37.2971C79.3073 37.218 79.3533 37.1687 79.4014 37.1171C79.435 37.0811 79.4696 37.044 79.491 36.9949C79.4381 37.0177 79.3864 37.0399 79.3355 37.0618C79.1862 37.1261 79.044 37.1874 78.8998 37.2486C78.8961 37.243 78.8933 37.2383 78.8905 37.2336C78.8877 37.229 78.8849 37.2243 78.8812 37.2187C78.924 37.1734 78.9683 37.1296 79.0209 37.0776C79.0506 37.0483 79.083 37.0163 79.1192 36.98C79.0481 36.9947 78.9887 37.0058 78.9305 37.0168C78.8853 37.0253 78.8408 37.0336 78.792 37.0434C78.8129 37.0052 78.8407 36.9731 78.8677 36.9419C78.9225 36.8785 78.9742 36.8188 78.9593 36.7189C78.947 36.7222 78.9347 36.7249 78.9227 36.7275C78.8948 36.7337 78.8686 36.7394 78.8478 36.7524C78.8126 36.7772 78.7767 36.8015 78.7407 36.8259C78.6359 36.8969 78.5301 36.9685 78.4388 37.0546C77.9331 37.5433 77.3085 37.7895 76.6504 37.9722C76.0035 38.155 75.3454 38.2259 74.6799 38.2669C74.2784 38.293 73.8806 38.3192 73.4827 38.3453C73.4232 38.349 73.36 38.3639 73.308 38.39C72.8841 38.6138 72.4752 38.86 72.1182 39.1846C71.9584 39.3301 71.8096 39.4905 71.713 39.6919C71.6981 39.7217 71.6758 39.7553 71.6461 39.774C71.4713 39.8933 71.3523 40.0612 71.2371 40.2328C71.2092 40.2757 71.1804 40.3186 71.1516 40.3615C71.1228 40.4044 71.0939 40.4473 71.0661 40.4902C70.9248 40.6991 70.7649 40.8856 70.5604 41.0348C70.4265 41.1321 70.2954 41.2337 70.1646 41.3352C70.0847 41.3971 70.0049 41.4589 69.9246 41.5197C69.8205 41.6018 69.7016 41.6428 69.564 41.6092C69.5454 41.4638 69.5528 41.3146 69.59 41.1691C69.6309 41.0087 69.7313 40.893 69.8912 40.8595C70.034 40.8276 70.1382 40.7444 70.2441 40.6598C70.3118 40.6057 70.3803 40.551 70.46 40.5088C70.4061 40.4487 70.3571 40.4564 70.3109 40.4636C70.2997 40.4653 70.2887 40.4671 70.2778 40.4678C70.2244 40.4711 70.1709 40.4805 70.0985 40.4932C70.0904 40.4947 70.082 40.4961 70.0734 40.4976C70.1529 40.3983 70.2578 40.3742 70.3631 40.35C70.4596 40.3278 70.5566 40.3056 70.6348 40.2253C70.6043 40.2154 70.5748 40.2058 70.5455 40.1962C70.4534 40.1661 70.3646 40.1371 70.263 40.106C70.2814 40.098 70.2974 40.0901 70.3122 40.0829C70.3391 40.0696 70.3616 40.0586 70.3857 40.0537C71.0921 39.8971 71.6052 39.4905 71.9249 38.8377C71.967 38.7559 72.0071 38.6721 72.0465 38.5893C72.0593 38.5625 72.0721 38.5358 72.0848 38.5094C72.1405 38.5169 72.1852 38.5057 72.2261 38.4572C72.2855 38.3826 72.3599 38.3192 72.4343 38.2595C72.557 38.1625 72.6834 38.0692 72.8135 37.9797C72.8916 37.9275 72.9511 37.8603 72.9697 37.7671C72.9845 37.6664 73.0477 37.6291 73.1407 37.6104C73.2044 37.5997 73.2682 37.5842 73.3319 37.5687C73.3797 37.557 73.4275 37.5454 73.4753 37.5358C73.5534 37.5209 73.5831 37.4761 73.572 37.3903C73.534 37.3903 73.4968 37.3884 73.4604 37.3866C73.3826 37.3826 73.3083 37.3788 73.2373 37.394C73.0663 37.4351 72.8879 37.491 72.8172 37.685C72.7875 37.7596 72.7466 37.8044 72.6759 37.8379C72.4975 37.9237 72.3599 38.0468 72.2744 38.2371C72.267 38.2532 72.2599 38.2699 72.2527 38.287C72.2165 38.3729 72.1772 38.4658 72.0811 38.5094C72.1093 38.4483 72.1366 38.3869 72.1639 38.3255C72.23 38.1771 72.2959 38.029 72.3748 37.8864C72.4466 37.7551 72.5309 37.6309 72.6154 37.5064C72.6532 37.4506 72.6911 37.3947 72.728 37.3381C72.7912 37.2448 72.8767 37.215 72.992 37.2225C73.2745 37.2411 73.5608 37.2448 73.8434 37.2448C74.3379 37.2448 74.7431 37.0658 75.0592 36.6666C75.3901 36.2489 75.6726 35.8087 75.918 35.3387C75.9522 35.273 75.9867 35.2075 76.0212 35.142C76.1592 34.88 76.2972 34.618 76.4162 34.3464C76.6988 33.6899 77.2156 33.3467 77.8848 33.1975C78.476 33.0632 79.0671 33.0893 79.6434 33.2535C80.0806 33.3776 80.5103 33.5206 80.9405 33.6636C81.1176 33.7225 81.2948 33.7814 81.4726 33.8391C81.9188 33.9846 82.3687 34.1301 82.8371 34.2009C83.3391 34.2793 83.8336 34.2681 84.328 34.1338C84.7891 34.007 85.1534 33.7421 85.4434 33.3654C85.7446 32.9737 85.9565 32.5298 86.1201 32.0635C86.3134 31.5226 86.4956 30.9743 86.6704 30.4259C86.9529 29.5493 87.4363 28.7921 88.046 28.1132C88.139 28.0124 88.2468 27.9192 88.3583 27.8371C88.4181 27.7928 88.4869 27.7612 88.5585 27.7284C88.5893 27.7143 88.6207 27.6999 88.652 27.6842C88.6625 27.7157 88.6706 27.7413 88.6777 27.7636C88.6832 27.781 88.6881 27.7963 88.6929 27.811C88.7178 27.7236 88.7375 27.6356 88.7571 27.5482C88.8076 27.3222 88.8574 27.0999 88.9941 26.9008C88.9879 26.9319 88.9805 26.963 88.973 26.9941C88.9581 27.0562 88.9433 27.1184 88.9383 27.1806C88.9334 27.245 88.9383 27.3077 88.9432 27.371C88.9457 27.403 88.9482 27.4352 88.9495 27.4678C88.9569 27.4697 88.9634 27.4706 88.9699 27.4715C88.9764 27.4725 88.9829 27.4734 88.9904 27.4753C89.0294 27.3428 89.0676 27.2103 89.1057 27.0778C89.1438 26.9454 89.1819 26.8131 89.2209 26.6807C89.2358 26.6845 89.2469 26.6845 89.2581 26.6845C89.2543 26.7591 89.2506 26.8337 89.2432 26.9083C89.2395 26.9568 89.232 27.0053 89.2246 27.0538C89.1911 27.3074 89.206 27.5275 89.4663 27.673C89.5579 27.7225 89.6377 27.7958 89.7178 27.8695C89.7644 27.9124 89.8111 27.9554 89.8604 27.9938C90.0835 28.1616 90.3214 28.2288 90.5928 28.1169C90.5954 28.1158 90.5981 28.1146 90.6008 28.1134C90.626 28.1023 90.6582 28.0881 90.6783 28.0982C90.7189 28.1176 90.7617 28.1342 90.8046 28.1509C90.9269 28.1983 91.0502 28.2461 91.1245 28.3593C91.5297 28.9674 92.0651 29.4337 92.6637 29.8365C92.779 29.9149 92.8608 30.0081 92.9165 30.135C92.923 30.1495 92.9294 30.164 92.9359 30.1786C93.0155 30.3581 93.0958 30.5391 93.1062 30.7393C93.1247 31.0265 93.0095 31.1309 92.7306 31.1011C92.5485 31.0824 92.3812 31.0116 92.2213 30.922L92.2212 30.922C92.1431 30.8772 92.0651 30.8325 91.9833 30.7915C91.9201 30.7579 91.8569 30.743 91.8049 30.8101C91.7528 30.8773 91.7528 30.9817 91.8049 31.0451C91.8792 31.1347 91.9833 31.172 92.0912 31.1906C92.1389 31.1983 92.1877 31.204 92.237 31.2097C92.2835 31.2152 92.3305 31.2207 92.3774 31.2279C92.4815 31.2428 92.5782 31.2727 92.6414 31.4032C92.6114 31.4032 92.5836 31.4042 92.5574 31.405C92.5089 31.4066 92.4655 31.4081 92.4221 31.4032C92.2064 31.3734 91.9945 31.3436 91.7788 31.3025C91.7156 31.2913 91.6562 31.254 91.6041 31.2167C91.5539 31.1798 91.5066 31.139 91.4594 31.0982C91.4017 31.0485 91.344 30.9987 91.2806 30.9556C91.1468 30.8624 91.0092 30.7691 90.8642 30.6982C90.6858 30.6087 90.4961 30.6012 90.2991 30.6497C89.7674 30.7803 89.3101 30.6311 88.9197 30.2543C88.8008 30.1387 88.7264 29.9932 88.7078 29.8216C88.7065 29.8139 88.7057 29.8058 88.7048 29.7975C88.7032 29.7817 88.7015 29.7654 88.6967 29.7507C88.6824 29.7015 88.666 29.6532 88.6497 29.6051C88.6189 29.5148 88.5885 29.4255 88.574 29.3329C88.5611 29.2373 88.5643 29.1398 88.5674 29.043C88.5688 29.0002 88.5702 28.9575 88.5702 28.9152C88.5591 28.9114 88.5479 28.9077 88.5331 28.904C88.5254 28.9283 88.516 28.9522 88.5066 28.976C88.4887 29.0214 88.471 29.0663 88.4661 29.1129C88.4475 29.3106 88.4513 29.512 88.5182 29.706C88.6595 30.1088 88.8974 30.4334 89.2506 30.6758C89.2716 30.6885 89.2915 30.7023 89.3101 30.7153C89.3244 30.7254 89.3381 30.7349 89.351 30.743C89.3421 30.7939 89.3332 30.8445 89.3243 30.8949C89.2739 31.1809 89.2248 31.4599 89.1837 31.739C89.1447 31.9945 89.1103 32.2501 89.0759 32.5056C89.0415 32.7611 89.0071 33.0166 88.9681 33.2721C88.8863 33.813 88.7747 34.3502 88.5665 34.8575C88.4959 35.0328 88.4178 35.2044 88.3211 35.3648C88.2085 35.5476 88.1638 35.7512 88.1185 35.957C88.113 35.9821 88.1074 36.0073 88.1018 36.0325C88.0996 36.0456 88.1012 36.0587 88.103 36.0725C88.1042 36.0824 88.1055 36.0925 88.1055 36.1034C88.2207 36.0773 88.2207 36.0773 88.3286 35.8348C88.3328 35.825 88.337 35.8152 88.3412 35.8054C88.385 35.7033 88.4287 35.6015 88.5033 35.5028C88.5116 35.5431 88.5204 35.5834 88.5292 35.6238C88.5522 35.7292 88.5754 35.8351 88.5888 35.943C88.6297 36.2824 88.6372 36.6219 88.5293 36.9539C88.4475 37.2038 88.3174 37.4164 88.0646 37.5619C88.0646 37.5443 88.0641 37.5286 88.0637 37.5144C88.0629 37.4895 88.0622 37.469 88.0646 37.45C88.1241 37.0546 88.0981 36.6629 87.9865 36.2787C87.9531 36.1743 87.9047 36.0735 87.8452 35.984C87.8184 35.9464 87.7762 35.9184 87.7338 35.8904C87.7174 35.8795 87.7009 35.8686 87.6854 35.8572C87.6798 35.8609 87.6742 35.8656 87.6686 35.8702C87.6631 35.8749 87.6575 35.8796 87.6519 35.8833C87.6631 35.9094 87.6733 35.9364 87.6835 35.9635C87.6937 35.9905 87.704 36.0176 87.7151 36.0437C87.8452 36.3384 87.9493 36.6443 88.0014 36.9613C88.0237 37.0994 88.02 37.2411 88.0125 37.3791C88.0101 37.4256 87.9917 37.4688 87.972 37.5152C87.9616 37.5395 87.9509 37.5648 87.9419 37.5918C87.8341 37.5768 87.7374 37.5619 87.6445 37.547C87.5664 37.5358 87.4883 37.5255 87.4102 37.5153C87.3322 37.505 87.2541 37.4948 87.176 37.4836C86.9157 37.4463 86.715 37.3083 86.5663 37.0956C86.5537 37.0777 86.5404 37.0606 86.5257 37.0419C86.5099 37.0217 86.4926 36.9996 86.4733 36.9725C86.4361 37.3493 86.6146 37.5731 86.9715 37.6104C87.0483 37.6185 87.1257 37.6227 87.2028 37.6269C87.3383 37.6342 87.4732 37.6416 87.6036 37.6701C87.994 37.7559 88.3769 37.8641 88.7599 37.976C89.2209 38.1103 89.6708 38.2669 90.0983 38.4833C90.3065 38.5877 90.5073 38.7146 90.7006 38.8489C90.7936 38.9123 90.8754 39.0018 90.9386 39.095C91.21 39.5016 91.5446 39.8523 91.9164 40.1656ZM92.2492 30.2481C92.218 30.2477 92.1862 30.2472 92.1544 30.2431C92.0726 30.4483 92.0912 30.549 92.251 30.6199C92.3217 30.6528 92.3993 30.672 92.4779 30.6914C92.515 30.7006 92.5524 30.7098 92.5894 30.7206C92.6117 30.5826 92.5596 30.4147 92.4704 30.3177C92.4085 30.2502 92.331 30.2492 92.2492 30.2481ZM91.3067 30.6423L91.3736 30.6647C91.4479 30.5266 91.5186 30.3886 91.5892 30.2431C91.4182 30.2319 91.3624 30.2469 91.3401 30.3476C91.3253 30.412 91.3203 30.478 91.3154 30.5435C91.3129 30.5766 91.3104 30.6097 91.3067 30.6423ZM90.9534 29.0392L90.9423 29.0383C90.92 28.9898 90.8977 28.945 90.8754 28.9002C90.8769 28.9148 90.878 28.9296 90.8791 28.9442C90.8861 29.0383 90.8929 29.1301 91.0055 29.1688C91.0204 29.1763 91.039 29.2061 91.039 29.2285C91.0423 29.3024 91.0879 29.3188 91.1404 29.3377C91.1462 29.3398 91.1521 29.3419 91.1579 29.3441C91.3069 29.3973 91.4541 29.4557 91.5997 29.5134C91.6684 29.5406 91.7368 29.5677 91.8049 29.5941C91.715 29.3864 91.5294 29.3329 91.3445 29.2795C91.2769 29.26 91.2095 29.2405 91.1468 29.2136C91.141 29.1982 91.1355 29.1835 91.1302 29.1693C91.1149 29.1286 91.1011 29.0919 91.0873 29.0532C91.0396 29.0463 90.9949 29.0426 90.9534 29.0392ZM90.8666 29.64C90.8553 29.6385 90.8443 29.6371 90.8345 29.6351C90.8323 29.6384 90.83 29.6414 90.8279 29.6443C90.8229 29.6511 90.8185 29.6571 90.8159 29.6649C90.881 29.7452 90.947 29.8245 91.013 29.9037C91.079 29.983 91.1449 30.0622 91.21 30.1424C91.2174 30.1368 91.2239 30.1321 91.2305 30.1275C91.237 30.1228 91.2435 30.1182 91.2509 30.1126C91.226 29.9825 91.1425 29.8927 91.0589 29.8026C91.0177 29.7584 90.9766 29.7141 90.9423 29.6649C90.9313 29.6484 90.8982 29.6441 90.8666 29.64ZM90.5668 28.7286C90.4999 28.4638 90.2099 28.3593 89.9905 28.5235C89.9236 28.572 89.8976 28.654 89.9422 28.7249C89.9942 28.807 90.05 28.8853 90.1132 28.9562C90.1801 29.0308 90.2619 29.0606 90.3697 29.0084C90.4205 28.9842 90.4775 28.9757 90.5388 28.9666C90.5718 28.9617 90.606 28.9566 90.6411 28.9487C90.6336 28.9272 90.6258 28.9059 90.618 28.8848C90.5989 28.8329 90.58 28.7817 90.5668 28.7286ZM88.3258 30.7819C88.3083 30.6485 88.2902 30.5109 88.1761 30.3923C88.1644 30.4185 88.1513 30.4414 88.1394 30.4623C88.1173 30.5009 88.0994 30.5324 88.1018 30.5639C88.1092 30.6982 88.1278 30.8288 88.1575 30.9593C88.1799 31.0601 88.2765 31.1011 88.4215 31.0899C88.3543 30.9989 88.3403 30.8918 88.3258 30.7819ZM83.9507 37.1446C83.8146 37.2698 83.6936 37.3811 83.6588 37.5843C83.6972 37.5387 83.7377 37.4978 83.7775 37.4577C83.8842 37.3501 83.9853 37.2482 84.0232 37.077C83.9988 37.1003 83.9745 37.1226 83.9507 37.1446ZM84.6098 35.6686C84.5503 35.739 84.4905 35.8099 84.4173 35.8684C84.4991 35.8945 84.5548 35.9131 84.6069 35.9318C84.7519 35.8012 84.975 35.5401 85.001 35.458C85.0062 35.4423 85.0004 35.423 84.994 35.4012C84.9912 35.3919 84.9883 35.3823 84.9861 35.3722C84.816 35.4244 84.7135 35.5458 84.6098 35.6686ZM84.856 35.9915C84.7073 36.1407 84.6441 36.3272 84.6404 36.5809C84.6701 36.5618 84.6979 36.5461 84.7231 36.5319C84.7767 36.5018 84.8184 36.4783 84.8411 36.4428C84.9002 36.3432 84.9495 36.2377 84.999 36.1321C85.018 36.0913 85.0371 36.0506 85.0568 36.0101C84.9341 35.9467 84.9043 35.943 84.856 35.9915ZM84.7656 36.7894C84.7492 36.829 84.7317 36.8712 84.711 36.9166C84.8997 36.9083 84.9516 36.7992 85.0014 36.6945C85.0193 36.6569 85.0369 36.6199 85.0605 36.5883C84.9675 36.5062 84.9155 36.4988 84.8597 36.592C84.8233 36.6505 84.7964 36.7152 84.7656 36.7894ZM84.8374 38.1849C84.8374 38.1177 84.7854 38.0618 84.6998 38.0916C84.6924 38.4684 84.8337 38.6959 85.0754 38.6773C85.057 38.6503 85.0379 38.6239 85.0188 38.5974C84.9293 38.4737 84.8405 38.3508 84.8374 38.1849ZM84.9378 34.6896C84.8671 34.7642 84.7928 34.8239 84.685 34.8351C84.9415 34.9209 85.2724 34.7866 85.3914 34.559C85.2241 34.559 85.0605 34.5665 84.9378 34.6896ZM88.0497 31.1086C88.0386 30.9929 88.0125 30.9817 87.8824 31.0265C87.8785 31.0517 87.8742 31.0768 87.8698 31.1016C87.8574 31.1723 87.8452 31.242 87.8452 31.3137C87.8378 31.5152 87.901 31.6308 88.0795 31.6606C88.075 31.5872 88.0717 31.5131 88.0684 31.439C88.0635 31.3286 88.0586 31.2179 88.0497 31.1086ZM87.7932 31.6009H87.6073C87.6073 31.6207 87.607 31.6389 87.6068 31.656C87.6061 31.7035 87.6055 31.7426 87.611 31.7837C87.6122 31.8036 87.6127 31.8235 87.6131 31.8434C87.6139 31.8832 87.6147 31.923 87.6222 31.9628C87.6445 32.112 87.7374 32.1903 87.8936 32.2015C87.8601 32.0038 87.8266 31.8061 87.7932 31.6009ZM87.5705 32.4545C87.5124 32.3791 87.4545 32.3039 87.3954 32.2314C87.347 32.1717 87.2875 32.1605 87.2243 32.2053C87.2875 32.5447 87.3024 32.582 87.5478 32.7088C87.5654 32.718 87.5828 32.7291 87.6007 32.7405C87.6696 32.7844 87.7449 32.8324 87.8601 32.7909C87.8375 32.7671 87.8169 32.7459 87.7977 32.7263C87.757 32.6846 87.7232 32.6499 87.6928 32.6118C87.6516 32.5598 87.611 32.5071 87.5705 32.4545ZM87.5218 33.2124C87.4772 33.0222 87.3396 32.9401 87.1797 32.873C87.0868 33.0669 87.1016 33.1266 87.2764 33.3281C87.4139 33.4885 87.414 33.4885 87.6073 33.3766C87.5974 33.3589 87.5868 33.3422 87.5765 33.326C87.5522 33.2875 87.5296 33.2518 87.5218 33.2124ZM87.1186 33.485C87.1074 33.4702 87.0961 33.4552 87.0868 33.44C87.0719 33.4437 87.0607 33.4512 87.0533 33.4623C87.0656 33.5432 87.077 33.6248 87.0884 33.7061C87.1012 33.7974 87.1139 33.8883 87.1277 33.9771C87.147 33.988 87.1662 33.9985 87.1853 34.0089C87.225 34.0304 87.2635 34.0514 87.2987 34.0741C87.4511 34.1711 87.4586 34.1711 87.5441 33.9995C87.5106 33.8951 87.4288 33.8466 87.3433 33.8018C87.2578 33.7533 87.1834 33.7011 87.1723 33.5854C87.1672 33.5497 87.1429 33.5174 87.1186 33.485ZM87.0496 34.0368C87.0422 33.9622 87.0087 33.9249 86.9195 33.9361C86.8005 34.1823 86.8637 34.38 87.1016 34.5106C87.1143 34.5029 87.127 34.4936 87.1398 34.4841C87.1646 34.4658 87.1899 34.4471 87.2169 34.4397C87.2194 34.439 87.2219 34.4384 87.2245 34.4378C87.2664 34.4275 87.3055 34.4179 87.295 34.3651C87.2875 34.3315 87.2578 34.2793 87.2318 34.2718C87.1054 34.242 87.0607 34.1524 87.0496 34.0368ZM86.9901 34.7269C86.9604 34.6262 86.9009 34.5628 86.8005 34.5292C86.7075 34.809 86.8228 35.0328 87.1425 35.1372C87.1384 35.1223 87.1346 35.1082 87.1311 35.095C87.1186 35.0487 87.1087 35.0116 87.0942 34.9768C87.0823 34.9477 87.0691 34.9186 87.0557 34.8893C87.0314 34.8361 87.0069 34.7823 86.9901 34.7269ZM86.3567 34.8651C86.3758 34.9012 86.3948 34.9372 86.4138 34.9731C86.4237 34.9905 86.4332 35.0083 86.4427 35.0262C86.4617 35.0618 86.4807 35.0974 86.503 35.1298C86.6321 35.3078 86.8136 35.4156 86.9955 35.5237C87.0653 35.5651 87.1351 35.6065 87.202 35.652C87.1909 35.6035 87.1686 35.5588 87.1314 35.5401C86.9009 35.4058 86.7559 35.2007 86.6629 34.9582C86.5216 34.5926 86.2279 34.3725 85.9305 34.1524C85.923 34.1636 85.9119 34.1748 85.9007 34.186C85.9342 34.2196 85.9639 34.2494 85.9937 34.283C86.0075 34.2992 86.0228 34.3154 86.0383 34.3318C86.0727 34.3684 86.1082 34.406 86.1313 34.4471C86.2081 34.5836 86.2827 34.7248 86.3567 34.8651ZM87.8356 38.4605C87.9253 38.4829 88.0147 38.5051 88.1055 38.5243C88.1724 38.5355 88.2245 38.5057 88.2356 38.4087L88.2352 38.4086C87.9714 38.3639 87.7075 38.3191 87.4363 38.2744C87.4347 38.296 87.4332 38.3137 87.4319 38.3285C87.4301 38.3494 87.4288 38.3642 87.4288 38.3751C87.4613 38.3811 87.4915 38.3864 87.5201 38.3914C87.5798 38.4018 87.6326 38.411 87.6854 38.4236C87.7358 38.4356 87.7858 38.448 87.8356 38.4605ZM88.405 38.5445C88.4377 38.5815 88.4666 38.6142 88.5293 38.584C88.5517 38.5728 88.5665 38.5094 88.5554 38.4758C88.5478 38.4504 88.5264 38.4302 88.5018 38.407C88.4903 38.3961 88.478 38.3845 88.4661 38.3714C88.4591 38.3791 88.4524 38.3864 88.4459 38.3935C88.4146 38.428 88.3878 38.4574 88.3509 38.4945C88.3726 38.5078 88.3893 38.5267 88.405 38.5445ZM90.4538 39.2767C90.4761 39.2929 90.4988 39.3094 90.5222 39.3263C90.6077 39.2816 90.5891 39.2181 90.5445 39.1659C90.459 39.0577 90.366 38.9533 90.2731 38.8526C90.2604 38.8399 90.2374 38.8358 90.2098 38.831C90.197 38.8287 90.1832 38.8263 90.169 38.8227C90.1816 38.9207 90.1942 38.9999 90.2045 39.0649C90.2064 39.0766 90.2082 39.0879 90.2099 39.0988C90.2972 39.1631 90.3732 39.2182 90.4538 39.2767Z" fill="black"/>
<g clip-path="url(#clip0)">
<path d="M76.7944 5.90878C77.4249 5.81197 78.0331 5.71516 78.6599 5.61835C78.6896 5.40983 78.7192 5.20877 78.6636 4.99653C78.6154 4.81781 78.608 4.62791 78.5857 4.44174C78.5746 4.35982 78.5969 4.27418 78.5301 4.20344C78.5078 4.1811 78.5116 4.13642 78.5004 4.1029C78.4819 4.04705 78.4745 3.98003 78.4411 3.93535C78.2816 3.73056 78.3335 3.52577 78.4448 3.32843C78.5449 3.14598 78.6784 2.99332 78.8602 2.88161C78.9566 2.82204 79.0456 2.74757 79.142 2.68427C79.1754 2.66193 79.2125 2.63587 79.2533 2.6247C79.6019 2.53161 79.9505 2.44969 80.2991 2.35288C80.492 2.30076 80.6552 2.33799 80.8035 2.46459C80.937 2.57629 81.0705 2.69172 81.2152 2.78853C81.3635 2.88906 81.4229 3.0231 81.4191 3.19066C81.4117 3.42151 81.3932 3.64864 81.3672 3.87577C81.3487 4.03961 81.3079 4.19599 81.2856 4.35982C81.256 4.57951 81.2634 4.79547 81.3784 4.99653C81.4006 5.03749 81.408 5.08589 81.4229 5.12685C81.2374 5.25345 80.9481 5.17898 80.5587 4.91462C80.4883 4.97047 80.4067 5.01143 80.3585 5.07845C80.2991 5.16036 80.262 5.25717 80.2324 5.35398C80.2138 5.41356 80.2583 5.45824 80.3251 5.45452C80.4141 5.45452 80.5068 5.45079 80.5958 5.44335C81.0334 5.39866 81.4711 5.35771 81.9087 5.29813C82.1943 5.2609 82.4761 5.19015 82.758 5.14175C83.2994 5.04866 83.8372 4.9593 84.3787 4.86621C84.7755 4.79919 85.176 4.73217 85.5729 4.66887C85.6507 4.6577 85.7286 4.65025 85.8065 4.6428C85.8918 4.63536 85.9623 4.61674 86.0068 4.51993C86.0587 4.39706 86.1662 4.45291 86.2701 4.46408C86.3257 4.66142 86.4073 4.85132 86.3962 5.06355C86.3925 5.20132 86.3888 5.21249 86.2478 5.24973C86.1477 5.27579 86.0476 5.29441 85.9474 5.30558C85.7101 5.33164 85.5803 5.46941 85.5246 5.68909C85.4468 5.99814 85.3615 6.31091 85.291 6.62368C85.2502 6.79868 85.1834 6.95507 85.0611 7.08911C84.9869 7.1673 84.9238 7.25294 84.9275 7.37582C84.9275 7.4205 84.8793 7.4689 84.846 7.50986C84.7681 7.60295 84.6865 7.69231 84.6049 7.77795C84.5826 7.80401 84.5493 7.82635 84.5196 7.83752C84.4009 7.8822 84.2822 7.92689 84.1636 7.96784C84.0597 8.00508 83.9522 8.00135 83.8446 7.97157C83.5257 7.8822 83.203 7.80029 82.8841 7.71093C82.821 7.69231 82.7617 7.66252 82.7023 7.63273C82.5948 7.57688 82.491 7.51731 82.3611 7.44656C82.8099 7.91944 82.8359 7.93806 83.3773 8.262C83.4218 8.28806 83.4626 8.32902 83.4849 8.37742C83.6369 8.69392 83.7853 9.01413 83.8224 9.36786C83.8372 9.5168 83.878 9.66574 83.904 9.81467C83.9114 9.85935 83.9225 9.91893 83.9002 9.95616C83.7593 10.2354 83.585 10.4923 83.2512 10.5556C83.1066 10.5817 83.0102 10.6562 82.9323 10.7716C82.8544 10.887 82.7728 11.0025 82.7023 11.1216C82.5429 11.3934 82.2981 11.4939 82.0014 11.4828C81.8086 11.4753 81.6194 11.4493 81.4266 11.4306C81.345 11.4232 81.2819 11.4344 81.2189 11.5051C81.141 11.5945 81.0446 11.6652 80.9556 11.7434C81.0409 11.9557 81.1225 12.1679 81.2078 12.3839C81.2634 12.3392 81.2485 12.3057 81.2337 12.2535C81.1966 12.1158 81.1558 11.9743 81.1558 11.8328C81.1595 11.6094 81.3969 11.4865 81.6009 11.5908C81.6676 11.628 81.7307 11.6764 81.8011 11.7211C81.7678 11.87 81.7641 12.0264 81.5415 12.0152C81.5712 12.0674 81.5897 12.1046 81.6194 12.1604C81.6936 12.1046 81.7678 12.0636 81.8271 12.0115C82.02 11.8291 82.2462 11.7099 82.5058 11.6503C82.5911 11.6317 82.6616 11.6392 82.7209 11.6987C82.8025 11.7807 82.9286 11.8291 82.9063 11.9854C82.8989 12.0525 82.8841 12.1009 82.8247 12.1381C82.758 12.1791 82.6912 12.2237 82.6208 12.2573C82.4947 12.3168 82.3649 12.3652 82.2388 12.4211C82.1943 12.4397 82.1498 12.4583 82.1127 12.4918C81.9532 12.637 81.9124 12.678 82.0645 12.8642C82.2239 13.0578 82.2165 13.27 82.0682 13.4599C81.968 13.5865 81.8605 13.6089 81.7196 13.5307C81.6268 13.4823 81.6194 13.3855 81.5897 13.2998C81.5601 13.203 81.5712 13.1174 81.675 13.0727C81.7233 13.0503 81.7455 13.0094 81.7121 12.9759C81.6862 12.9498 81.6194 12.9386 81.5897 12.9535C81.4488 13.0317 81.4377 13.1136 81.4822 13.2663C81.5341 13.445 81.5564 13.6312 81.5897 13.8174C81.638 14.1041 81.7418 14.3759 81.8531 14.644C81.9013 14.7594 81.9161 14.8897 81.9458 15.0126C82.0088 15.2844 82.0682 15.5562 82.1386 15.8243C82.2276 16.1706 82.3426 16.5094 82.4168 16.8594C82.5243 17.3435 82.6282 17.8313 82.6986 18.319C82.7617 18.7807 82.7506 18.8366 82.287 19.0451C82.2833 19.0674 82.2684 19.0972 82.2721 19.1233C82.2833 19.2424 82.2202 19.3132 82.1386 19.3877C82.1015 19.4212 82.0607 19.4658 82.0459 19.5105C81.9754 19.7674 81.8308 19.9871 81.6825 20.1956C81.586 20.3297 81.4303 20.4191 81.2931 20.5159C81.204 20.5792 81.1595 20.6574 81.1225 20.7579C81.078 20.8919 81.115 20.9999 81.1892 21.093C81.2819 21.2121 81.3338 21.3425 81.3895 21.4802C81.4266 21.5808 81.523 21.6627 81.6009 21.7409C81.6565 21.7967 81.727 21.8302 81.79 21.8786C81.9309 21.9829 81.968 22.1616 81.8827 22.3106C81.8642 22.3441 81.8271 22.3701 81.79 22.3888C81.7529 22.4074 81.7084 22.4148 81.6676 22.4148C81.4525 22.4148 81.2337 22.426 81.0223 22.4111C80.8554 22.3999 80.7034 22.3329 80.6218 22.1691C80.5699 22.0685 80.492 22.0164 80.3807 22.009C80.3214 22.0052 80.262 21.9903 80.2027 21.9866C80.0358 21.9717 79.9394 21.8898 79.9134 21.726C79.8875 21.5584 79.8578 21.3909 79.8504 21.2233C79.8467 21.1377 79.8801 21.052 79.9023 20.9441C79.8207 20.635 79.6242 20.393 79.3386 20.2254C79.2125 20.3148 79.0938 20.3967 78.9751 20.4749C78.8045 20.5829 78.7452 20.7653 78.6822 20.9403C78.6673 20.9813 78.6896 21.052 78.7192 21.0893C78.7712 21.1526 78.7786 21.2196 78.7637 21.2941C78.7304 21.4802 78.6896 21.6627 78.6562 21.8451C78.6377 21.9419 78.582 21.9903 78.4782 21.9829C78.3595 21.9755 78.2371 22.0052 78.1296 21.901C78.0814 21.9606 78.0406 22.009 77.9998 22.0611C77.9404 22.1393 77.8885 22.2175 77.8217 22.2919C77.7031 22.4297 77.5621 22.5005 77.373 22.4334C77.2988 22.4074 77.2098 22.4185 77.1245 22.4223C76.9984 22.426 76.8723 22.4483 76.7462 22.4372C76.6609 22.4297 76.5645 22.3999 76.494 22.3515C76.3605 22.2584 76.3679 22.1356 76.5089 22.0499C76.5793 22.0052 76.6609 21.9755 76.7425 21.9568C76.9947 21.8973 77.1579 21.7483 77.2321 21.5026C77.2506 21.4393 77.2692 21.3723 77.2988 21.3127C77.3433 21.2159 77.3878 21.1116 77.4509 21.0297C77.5362 20.9254 77.5658 20.8175 77.5176 20.6946C77.4323 20.4786 77.3322 20.2738 77.1097 20.1584C77.0726 20.1398 77.0392 20.1137 77.0021 20.0914C76.7759 19.9685 76.6572 19.7823 76.6498 19.5217C76.6461 19.343 76.6127 19.1642 76.5905 18.9818C76.4199 18.9632 76.2641 18.9446 76.0861 18.9259C76.2122 18.0845 76.3309 17.2616 76.457 16.4275C76.2975 16.4275 76.164 16.435 76.0268 16.4275C75.8005 16.4163 75.5965 16.3233 75.3963 16.219C75.2776 16.1594 75.1626 16.0961 75.0477 16.0291C75.0143 16.0105 74.9772 15.9807 74.9549 15.9472C74.84 15.7871 74.7287 15.6195 74.6138 15.4594C74.5692 15.3961 74.5841 15.3477 74.6397 15.2919C74.6768 15.3217 74.7176 15.344 74.7547 15.3775C75.1775 15.7536 75.6818 15.8429 76.2233 15.7834C76.3123 15.7722 76.3976 15.735 76.4829 15.7052C76.5571 15.6791 76.5682 15.6121 76.5793 15.5451C76.6646 15.0685 76.7499 14.5919 76.8352 14.1153C76.8797 13.877 76.9205 13.6387 76.9613 13.4115C76.5608 13.028 76.4718 12.6296 76.6795 12.153C76.8019 11.8663 76.9873 11.6578 77.3099 11.5908C77.3433 11.6689 77.3693 11.7248 77.399 11.7881C77.5176 11.7658 77.6326 11.762 77.6808 11.628C77.6919 11.6019 77.7364 11.587 77.7661 11.5721C77.9033 11.4939 77.933 11.4269 77.8959 11.278C77.8625 11.1402 77.7809 11.0099 77.8329 10.8535C77.8403 10.8275 77.7958 10.7865 77.7772 10.753C77.6845 10.8349 77.6029 10.9131 77.5139 10.9838C77.4027 11.0732 77.2766 11.0881 77.1394 11.0732C76.8575 11.036 76.5756 11.0062 76.2975 10.9727C76.1825 10.9578 76.0713 10.9727 75.9637 11.0211C75.8116 11.0918 75.6559 11.1663 75.4816 11.1626C75.3629 11.1588 75.2405 11.1551 75.1218 11.1365C75.0217 11.1216 74.9587 11.0322 74.9549 10.9094C74.9512 10.8051 74.9512 10.7046 74.9549 10.6003C74.9549 10.5259 74.9401 10.4663 74.8845 10.4067C74.7769 10.2913 74.6842 10.1647 74.5841 10.0418C74.5285 9.97478 74.4802 9.90776 74.4914 9.81467C74.5025 9.72903 74.4506 9.68435 74.3912 9.63595C74.165 9.44233 73.9388 9.25243 73.72 9.05509C73.6718 9.01413 73.6458 8.95083 73.605 8.90243C73.5568 8.84285 73.5086 8.77955 73.4529 8.72743C73.3713 8.64923 73.3231 8.55987 73.312 8.44444C73.3083 8.28434 73.2749 8.14285 73.249 8.00508C73.2935 7.96784 73.3565 7.9455 73.3676 7.90454C73.4084 7.77795 73.4233 7.64763 73.3825 7.51358C73.3491 7.41305 73.3343 7.30507 73.3083 7.19337C73.3713 7.1673 73.4121 7.14124 73.4566 7.13007C73.6384 7.08911 73.8238 7.06305 74.0018 7.01092C74.1835 6.95507 74.3616 6.87687 74.5359 6.80613C74.61 6.77634 74.6731 6.73166 74.7473 6.70187C74.9216 6.63485 75.081 6.53432 75.2294 6.42261C75.3073 6.36304 75.4 6.31836 75.489 6.28112C75.6856 6.19921 75.8821 6.12474 76.0787 6.04654C76.023 5.95718 75.9415 6.05771 75.8524 6.02793C75.8265 5.98325 75.782 5.92739 75.7523 5.8641C75.7004 5.75984 75.7449 5.68537 75.8599 5.6742C75.9303 5.66675 76.0045 5.67048 76.0787 5.6742C76.1714 5.67792 76.2493 5.66675 76.3272 5.59973C76.4384 5.50664 76.6906 5.55877 76.7722 5.67792C76.7944 5.70771 76.7907 5.75612 76.7944 5.79707C76.7982 5.83431 76.7944 5.87527 76.7944 5.90878ZM78.0517 21.0669C77.9961 20.9925 77.9404 20.9143 77.8811 20.8435C77.8588 20.8137 77.8217 20.7951 77.7772 20.7579C77.7364 20.8584 77.7105 20.9366 77.6734 21.0111C77.6549 21.052 77.6289 21.1116 77.5955 21.1228C77.5139 21.1526 77.488 21.2121 77.4657 21.2829C77.436 21.3797 77.4027 21.4765 77.3804 21.577C77.3025 21.8786 77.1208 22.0723 76.8241 22.1616C76.787 22.1728 76.7536 22.1914 76.7091 22.2138C76.8575 22.2584 76.9836 22.2957 77.1245 22.2696C77.2469 22.2473 77.3767 22.2435 77.5028 22.2249C77.6511 22.2063 77.7921 22.1653 77.87 22.0239C77.9627 21.86 78.1073 21.7781 78.2779 21.7185C78.5894 21.6068 78.5894 21.6031 78.6302 21.2792C78.6339 21.2345 78.6302 21.1712 78.6043 21.1451C78.5004 21.0409 78.5153 20.9292 78.5561 20.81C78.5709 20.7691 78.5746 20.7207 78.5857 20.6648C78.3595 20.6611 78.1481 20.6611 77.933 20.7095C78.0591 20.9105 78.0591 20.9105 78.0517 21.0669ZM76.991 7.07049C77.0615 6.98858 77.1356 6.90666 77.2284 6.8024C77.1579 6.8173 77.106 6.80985 77.08 6.83219C77.0095 6.89921 76.9242 6.91783 76.8315 6.92528C76.8019 6.929 76.7722 6.94017 76.7462 6.95507C76.4681 7.10028 76.1788 7.21943 75.8747 7.2939C75.6633 7.34603 75.4779 7.45401 75.285 7.58433C75.463 7.6588 75.6188 7.73327 75.7857 7.78912C75.8524 7.81146 75.9377 7.81146 76.0119 7.79656C76.1417 7.7705 76.2567 7.69976 76.3531 7.60295C76.494 7.46518 76.6424 7.32741 76.7907 7.19709C76.8501 7.14496 76.928 7.10773 76.9947 7.06305C76.9613 7.104 76.9317 7.14868 76.8909 7.18592C76.7166 7.35347 76.5423 7.52103 76.3679 7.68858C76.2826 7.7705 76.1973 7.85242 76.1121 7.93433C76.1491 7.98646 76.2048 7.98274 76.2567 7.93061C76.3679 7.82263 76.4792 7.71093 76.5905 7.59922C76.6535 7.5322 76.7091 7.45773 76.8093 7.43911C76.6238 7.66997 76.4458 7.90454 76.1936 8.0721C76.138 8.10933 76.0898 8.11678 76.0268 8.09816C75.8562 8.04976 75.6818 8.0088 75.5075 7.96412C75.5075 7.95667 75.5112 7.95295 75.5112 7.9455C75.604 7.95295 75.7004 7.9604 75.7931 7.96784C75.7968 7.95295 75.8005 7.93806 75.8042 7.92316C75.6967 7.85986 75.5928 7.79284 75.4816 7.73699C75.2665 7.62156 75.1589 7.65507 75.0365 7.88965C75.0885 7.90082 75.1404 7.91199 75.1923 7.91944C75.1181 7.93806 75.044 7.93806 74.9735 7.94923C74.8956 7.96412 74.8289 7.98646 74.7843 8.06838C74.6805 8.25827 74.5062 8.36998 74.3096 8.47796C74.3949 8.53381 74.4765 8.58221 74.5507 8.64179C74.6768 8.7386 74.7806 8.84658 74.7547 9.03275C74.7436 9.10722 74.7621 9.18541 74.7658 9.25243C75.3481 9.44605 75.9118 9.30084 76.4978 9.27105C76.494 8.89498 76.6609 8.61572 76.9131 8.37742C76.8872 8.45561 76.8501 8.53008 76.813 8.60083C76.7759 8.6753 76.7351 8.74604 76.6943 8.82424C77.106 8.92105 77.2209 8.99551 77.3174 9.23009C77.1764 9.17796 77.0466 9.12956 76.9205 9.08115C76.876 9.06626 76.8278 9.04764 76.7833 9.04392C76.7017 9.0402 76.6832 9.07371 76.698 9.18541C77.1282 9.24499 77.2284 9.30456 77.2766 9.5168C77.2209 9.48329 77.1653 9.42371 77.1023 9.41626C76.876 9.39392 76.6461 9.3902 76.4162 9.38275C76.4013 9.38275 76.3865 9.39765 76.3754 9.40509C76.3976 9.46095 76.4162 9.50563 76.4384 9.56893C76.0675 9.56893 75.7115 9.46467 75.3555 9.55403C75.3852 9.66573 75.3852 9.66573 75.4519 9.71042C75.5483 9.76999 75.6485 9.82584 75.7449 9.88914C75.7783 9.91148 75.7968 9.95244 75.8228 9.98223C75.6225 9.95989 75.4593 9.85563 75.2665 9.84446C75.3147 9.92265 75.3703 9.98223 75.4334 10.0306C75.5261 10.1051 75.5595 10.1982 75.5483 10.3173C75.5038 10.1051 75.3073 10.1014 75.1663 10.0157C75.2108 10.1461 75.3295 10.228 75.374 10.3918C75.2776 10.3397 75.2071 10.3024 75.1181 10.254C75.133 10.4886 75.1478 10.6971 75.1626 10.9131C75.2071 10.928 75.2442 10.9392 75.285 10.9503C75.5261 11.0099 75.7412 10.9168 75.9415 10.8126C76.075 10.7418 76.2011 10.7269 76.342 10.7567C76.494 10.7902 76.6498 10.82 76.7982 10.8721C77.1394 10.9838 77.4101 10.8721 77.6474 10.6264C77.7068 10.5668 77.7179 10.511 77.7068 10.4328C77.6215 9.86308 77.5733 9.29339 77.488 8.7237C77.3915 8.07955 77.5807 7.48752 77.9033 6.93645C77.933 6.88432 77.9738 6.83964 78.0146 6.79496C78.0665 6.73538 78.1296 6.69442 78.2445 6.69442C77.9923 6.98113 77.8848 7.31624 77.7439 7.63273C77.6289 7.89337 77.5658 8.17263 77.551 8.45934C77.5399 8.69764 77.5473 8.93222 77.7327 9.11839C77.7735 9.15935 77.7847 9.22637 77.8069 9.28222C77.8143 9.29711 77.8143 9.31573 77.8217 9.33807C77.7772 9.33062 77.7402 9.3269 77.7068 9.32318C77.7068 9.53169 77.6994 9.72903 77.7105 9.92638C77.7142 10.0344 77.7587 10.1386 77.7661 10.2429C77.7809 10.4477 77.8737 10.5817 78.0962 10.6413C78.0851 10.47 78.0628 10.3099 78.0628 10.1498C78.0517 9.33807 78.0851 8.52636 78.1741 7.71837C78.2186 7.33113 78.3335 6.96251 78.5857 6.64602C78.6302 6.59389 78.6525 6.52315 78.7007 6.43006C78.5375 6.47102 78.4114 6.5157 78.2816 6.53432C78.0628 6.5641 77.9033 6.66464 77.8106 6.86943C77.7995 6.89549 77.7809 6.92155 77.7587 6.94389C77.5288 7.20081 77.3841 7.50614 77.2432 7.81518C77.1987 7.91199 77.1505 8.0088 77.1023 8.10561C77.0911 8.10189 77.0763 8.09444 77.0652 8.09072C77.0837 8.02742 77.0986 7.95667 77.1245 7.8971C77.2729 7.56943 77.4249 7.24177 77.5733 6.91411C77.462 6.99602 77.3693 6.97741 77.3099 6.88432C77.1913 6.95507 77.0911 7.01092 76.991 7.07049ZM81.3821 19.5143C81.5044 19.477 81.6194 19.4547 81.7233 19.4137C81.8197 19.3765 81.9087 19.3244 81.9977 19.276C82.0793 19.235 82.109 19.1754 82.083 19.0823C82.0496 18.9371 82.02 18.7882 81.9977 18.6392C81.9421 18.2297 81.905 17.8201 81.8308 17.4142C81.7158 16.7701 81.5823 16.1296 81.4488 15.4892C81.3598 15.061 81.2671 14.6365 81.1595 14.2158C81.0668 13.8434 80.9519 13.4748 80.848 13.1062C80.8258 13.0206 80.8109 12.9312 80.7924 12.8456C80.8406 12.8642 80.8628 12.8902 80.874 12.92C80.9222 13.0615 80.9667 13.2067 81.0149 13.3519C81.0668 13.5121 81.0594 13.6908 81.1781 13.8248C81.1855 13.8323 81.1855 13.8472 81.1892 13.8583C81.2782 14.1637 81.3672 14.469 81.4562 14.7743C81.4674 14.8153 81.4748 14.8562 81.4822 14.8972C81.5378 15.2137 81.5823 15.5302 81.6528 15.8429C81.7715 16.3866 81.8419 16.9414 81.9754 17.4813C82.0422 17.7568 82.057 18.0435 82.1053 18.3265C82.1349 18.5126 82.1831 18.6988 82.2276 18.8887C82.2907 18.8626 82.3278 18.844 82.3686 18.8329C82.554 18.777 82.6059 18.7174 82.5985 18.5238C82.5948 18.3786 82.5874 18.2297 82.554 18.0919C82.376 17.3062 82.2017 16.5243 82.0051 15.7424C81.8716 15.2062 81.7047 14.6775 81.5564 14.145C81.4191 13.6573 81.2931 13.1695 81.1595 12.678C81.1521 12.6482 81.1373 12.6222 81.1262 12.5924C81.0334 12.3615 80.9333 12.1344 80.8554 11.8998C80.8109 11.7658 80.7738 11.6466 80.5995 11.6615C80.5773 11.6652 80.5513 11.6541 80.5328 11.6392C80.4512 11.5833 80.3622 11.5535 80.262 11.5647C80.2398 11.5684 80.2064 11.5647 80.1916 11.5535C80.0655 11.453 79.9283 11.4977 79.791 11.5088C79.5389 11.5275 79.2867 11.5461 79.0345 11.5684C78.964 11.5759 78.8973 11.5908 78.8157 11.6057C78.8157 11.6876 78.8157 11.7546 78.8157 11.8216C78.8157 12.719 78.812 13.6163 78.8157 14.5137C78.8157 14.8562 78.8231 15.1988 78.8602 15.5451C78.8898 15.8541 78.99 16.111 79.1457 16.3679C79.3683 16.7254 79.6353 17.0233 80.0395 17.1759C80.1174 17.2057 80.1953 17.243 80.2695 17.2839C80.2954 17.2988 80.314 17.3286 80.3511 17.3695C80.2991 17.3956 80.262 17.4105 80.2287 17.4291C80.136 17.4813 80.021 17.5148 79.9505 17.5892C79.7428 17.8089 79.5908 18.0621 79.5537 18.3674C79.5426 18.4568 79.5537 18.5499 79.5648 18.6355C79.5834 18.7658 79.6575 18.8627 79.791 18.885C79.9616 18.9148 80.136 18.9371 80.3103 18.9371C80.492 18.9371 80.67 18.8962 80.8517 18.8887C81.0557 18.8775 81.256 18.885 81.4822 18.885C81.4859 18.8031 81.5007 18.7249 81.4896 18.6541C81.4154 18.2185 81.3376 17.7829 81.2597 17.3472C81.0854 16.394 80.9074 15.4408 80.7293 14.4876C80.6477 14.0482 80.5773 13.6051 80.4809 13.1658C80.3918 12.7785 80.2732 12.3987 80.1619 12.0003C80.2472 12.0562 80.3065 12.1083 80.3399 12.2014C80.4549 12.5291 80.5291 12.8716 80.67 13.1918C80.6848 13.2291 80.6885 13.2738 80.696 13.3147C80.7664 13.7392 80.8332 14.1599 80.9036 14.5844C81.0297 15.3291 81.1558 16.0775 81.2893 16.8222C81.3227 17.0047 81.3746 17.1871 81.4191 17.3695C81.4451 17.4701 81.4748 17.5669 81.4896 17.6674C81.5193 17.8275 81.5378 17.9914 81.5638 18.1515C81.5935 18.3376 81.6194 18.5238 81.6602 18.7063C81.7233 19.0265 81.5267 19.2499 81.3821 19.5143ZM80.3918 5.81197C80.2213 5.87527 80.0655 5.92739 79.9208 5.99442C79.8912 6.00931 79.8801 6.06888 79.8615 6.10984C79.8541 6.12101 79.843 6.13218 79.8281 6.1508C79.8022 6.09867 79.7836 6.05399 79.7577 6.00559C79.6909 6.03537 79.6316 6.06144 79.5685 6.0875C79.5834 6.2774 79.4498 6.47474 79.6427 6.63113C79.2422 6.96251 78.9974 7.36837 78.901 7.8822C79.0641 7.83008 79.2088 7.87103 79.2644 7.97529C79.3126 8.06093 79.2718 8.22104 79.1865 8.28434C79.079 8.36625 78.9714 8.33274 78.8082 8.16519C78.7823 8.35136 78.7415 8.52264 78.7415 8.69764C78.7341 9.30456 78.7378 9.91148 78.7378 10.5147C78.7378 10.6897 78.7637 10.7083 78.9418 10.7046C79.231 10.6934 79.5203 10.6897 79.8096 10.6711C80.0989 10.6524 80.3844 10.6189 80.6737 10.5892C80.7738 10.578 80.8406 10.5296 80.8925 10.4328C80.9815 10.2764 80.9889 10.12 80.9741 9.94499C80.9444 9.5801 80.8814 9.20775 81.0112 8.84658C81.0223 8.81307 81.0112 8.76466 80.9964 8.72743C80.9111 8.54125 80.8221 8.35508 80.7368 8.17263C80.7145 8.12795 80.6923 8.08327 80.67 8.03859C80.6477 8.05348 80.644 8.05348 80.6403 8.05721C80.6329 8.0721 80.6218 8.08699 80.6181 8.10561C80.5291 8.46306 80.3956 8.79072 80.1248 9.05881C80.021 9.16307 79.9023 9.21892 79.7799 9.27477C79.7391 9.29339 79.6798 9.26733 79.6316 9.25988C79.6612 9.2152 79.6872 9.19286 79.7206 9.18169C79.932 9.10349 80.0989 8.95828 80.2101 8.76838C80.3065 8.60083 80.3881 8.4221 80.4475 8.23966C80.5254 7.99018 80.5662 7.73327 80.6329 7.48007C80.6626 7.36465 80.7034 7.24922 80.7442 7.13751C80.7775 7.04815 80.8369 7.03698 80.9185 7.104C80.9074 7.14124 80.8925 7.17475 80.8814 7.20826C80.8072 7.4689 80.7813 7.73327 80.8183 7.99763C80.874 8.38859 81.1113 8.69019 81.3487 8.98807C81.3598 9.00296 81.3746 9.01413 81.3895 9.0253C81.4748 9.10722 81.5638 9.18913 81.6491 9.27477C81.7344 9.36414 81.8086 9.39392 81.9198 9.34552C81.994 9.31201 82.0607 9.25616 82.1275 9.20775C82.2239 9.13328 82.3129 9.05509 82.4057 8.9769C82.5392 8.86892 82.6801 8.9136 82.8544 8.95083C82.6059 9.04392 82.6059 9.04392 82.5651 9.16307C82.7283 9.20403 82.8878 9.09605 83.088 9.1519C83.0139 9.2003 82.9731 9.23754 82.9249 9.25616C82.7839 9.31201 82.6467 9.37158 82.5021 9.40882C82.3686 9.44233 82.2573 9.49818 82.1535 9.58754C81.8494 9.84446 81.549 10.1088 81.1929 10.295C81.1484 10.3173 81.115 10.3546 81.0742 10.3844C81.2189 10.3918 81.3561 10.3732 81.4748 10.4104C81.6528 10.4663 81.8382 10.537 81.8679 10.779C81.879 10.8684 81.9384 10.9429 82.0274 10.9876C82.0904 11.0211 82.146 11.062 82.2054 11.103C82.2017 11.1142 82.198 11.1253 82.1906 11.1365C82.0941 11.1179 81.9977 11.0993 81.8901 11.0769C81.8419 11.1439 81.7863 11.2147 81.7084 11.3152C81.9124 11.3152 82.0867 11.3227 82.2573 11.3115C82.3834 11.3041 82.4835 11.2445 82.5503 11.129C82.6059 11.0285 82.6764 10.9354 82.7431 10.8461C82.7914 10.779 82.8284 10.7157 82.7839 10.6338C82.6356 10.7009 82.491 10.7679 82.3278 10.8461C82.3315 10.7977 82.3241 10.7642 82.3352 10.7567C82.4613 10.6599 82.58 10.537 82.7246 10.4774C82.8878 10.4104 83.0769 10.403 83.2549 10.3732C83.4367 10.3434 83.5776 10.2429 83.6926 10.1051C83.7519 10.0381 83.7741 9.96733 83.7779 9.87425C83.7927 9.43488 83.6703 9.0253 83.4997 8.62689C83.4478 8.50402 83.3699 8.41466 83.2401 8.36625C83.0324 8.28434 82.8359 8.18008 82.7135 7.97529C82.6875 7.93433 82.643 7.90827 82.6059 7.87848C82.4316 7.71093 82.2536 7.54709 82.0793 7.37954C82.0274 7.33113 81.9717 7.28273 81.9198 7.23432C81.8419 7.15986 81.7566 7.08911 81.6973 6.99975C81.4933 6.69815 81.1929 6.54176 80.874 6.41144C80.607 6.29974 80.3473 6.28484 80.0803 6.43751C79.9579 6.50825 79.8022 6.51942 79.639 6.51942C79.665 6.42261 79.7169 6.37793 79.791 6.36304C79.932 6.33697 80.0729 6.31091 80.2175 6.28857C80.288 6.2774 80.3585 6.26995 80.4401 6.25878C80.4252 6.10612 80.4104 5.9758 80.3918 5.81197ZM76.7796 18.7733C76.7907 18.7212 76.8056 18.6765 76.813 18.6281C76.8649 18.1515 76.9168 17.6786 76.9613 17.1983C77.0429 16.2525 77.1134 15.303 77.258 14.361C77.3099 14.0259 77.3767 13.6982 77.436 13.3631C77.4657 13.4004 77.4694 13.4376 77.4657 13.4711C77.4249 13.7764 77.3841 14.0817 77.3433 14.3908C77.2729 14.9568 77.1876 15.519 77.1356 16.085C77.0874 16.6025 77.0726 17.1238 77.0355 17.6451C77.0095 17.9951 76.9725 18.3451 76.9391 18.6951C76.9317 18.7658 76.9131 18.844 77.0021 18.8701C77.2803 18.7584 77.5807 18.8478 77.8662 18.7621C77.87 18.7286 77.8737 18.6951 77.8737 18.6616C77.8662 18.4121 77.8625 18.1664 77.8514 17.9169C77.8032 16.9414 77.7884 15.9658 77.844 14.9903C77.8625 14.6626 77.87 14.3349 77.8885 14.011C77.9293 13.3259 77.9701 12.6445 78.0109 11.9594C78.0183 11.844 78.0109 11.7322 78.0109 11.6168C77.818 11.6094 77.755 11.6503 77.7661 11.803C77.7772 11.9557 77.7327 12.0562 77.5807 12.0934C77.6474 12.2275 77.7105 12.3503 77.7698 12.462C77.7476 12.4844 77.7439 12.4918 77.7402 12.4956C77.7142 12.5067 77.6845 12.5216 77.6586 12.5291C77.4064 12.5961 77.2729 12.7785 77.2432 13.0243C77.2172 13.2589 77.1764 13.4897 77.0874 13.7094C77.0763 13.7355 77.0763 13.769 77.0726 13.7988C76.9947 14.253 76.9168 14.7073 76.8427 15.1578C76.7091 15.9658 76.5793 16.7701 76.4532 17.5781C76.3902 17.9765 76.3679 18.386 76.2456 18.7733C76.2419 18.7807 76.2567 18.7919 76.2678 18.818C76.4273 18.8068 76.6016 18.7919 76.7796 18.7733ZM80.9074 6.2625C80.9074 6.27367 80.9074 6.28484 80.9074 6.29974C80.9444 6.31091 80.9815 6.32208 81.0223 6.33697C81.0854 6.35931 81.1558 6.36676 81.2078 6.404C81.4229 6.55666 81.6602 6.67953 81.8234 6.89921C81.8679 6.95879 81.9569 7.00719 82.0311 7.02581C82.6356 7.16358 83.2438 7.29018 83.8446 7.43539C84.0708 7.49124 84.2785 7.43911 84.4825 7.38326C84.616 7.34603 84.7273 7.26039 84.7495 7.09656C84.7644 6.98485 84.8014 6.87315 84.8237 6.76145C84.8979 6.33697 84.9461 5.90878 85.087 5.50292C85.0907 5.49547 85.0759 5.4843 85.0685 5.46941C83.6851 5.72633 82.2944 5.99442 80.9074 6.2625ZM79.1754 20.0393C79.1198 19.9462 79.0604 19.8494 79.0048 19.7526C78.7971 19.3877 78.7489 18.9855 78.7378 18.5797C78.7304 18.3563 78.7526 18.1329 78.7712 17.9132C78.7971 17.6116 78.7452 17.3211 78.6859 17.0307C78.6117 16.6584 78.5338 16.2823 78.4633 15.91C78.4225 15.7014 78.3966 15.4892 78.3632 15.277C78.3261 15.4296 78.3076 15.5786 78.3113 15.7312C78.315 16.1669 78.3298 16.6025 78.3335 17.0382C78.3335 17.3174 78.315 17.593 78.3113 17.8722C78.3076 18.1701 78.3113 18.468 78.3113 18.7621C78.3113 18.8142 78.3039 18.8664 78.3002 18.9222C77.7921 18.9595 77.3062 19.0377 76.8093 18.9892C76.7685 19.2462 76.8204 19.4882 76.8946 19.7265C76.928 19.8345 77.0058 19.9127 77.1134 19.9573C77.2246 20.002 77.3359 20.0504 77.4472 20.0914C77.5102 20.1175 77.5733 20.1361 77.6511 20.1659C77.5733 19.9909 77.488 19.8382 77.4435 19.6781C77.3878 19.4882 77.399 19.3132 77.436 19.1717C77.4917 19.3169 77.5658 19.4435 77.5881 19.5776C77.6363 19.8345 77.7921 20.0095 77.9775 20.1696C78.0628 20.244 78.1592 20.285 78.2742 20.2776C78.4596 20.2627 78.6488 20.2441 78.8342 20.2478C78.9788 20.2403 79.0938 20.1919 79.1754 20.0393ZM81.2893 3.54066C81.2893 3.41407 81.2856 3.29864 81.2893 3.18694C81.2931 3.10502 81.2634 3.04917 81.204 3.00076C81.052 2.87044 80.8962 2.74757 80.7553 2.60608C80.6032 2.44969 80.4252 2.47203 80.2509 2.51299C79.906 2.59863 79.5685 2.69916 79.2273 2.79597C79.2051 2.80342 79.1791 2.81087 79.1643 2.82576C78.9269 3.01938 78.6673 3.19066 78.5264 3.48109C78.4671 3.60024 78.4893 3.70822 78.6154 3.81248C78.6488 3.75662 78.6859 3.70077 78.7155 3.6412C78.8008 3.48481 78.9306 3.39917 79.1087 3.39917C79.2718 3.39545 79.435 3.39173 79.5982 3.39917C79.7725 3.40662 79.9394 3.45875 80.1026 3.53322C80.2287 3.58907 80.2843 3.68216 80.2991 3.81248C80.3103 3.93163 80.3288 4.05078 80.3436 4.1662C80.5068 4.18482 80.5736 4.15131 80.6403 4.00982C80.6774 3.9279 80.7071 3.84226 80.7442 3.75662C80.8183 3.59652 80.8925 3.44013 80.9667 3.28002C80.9927 3.23162 81.0223 3.17949 81.0705 3.22417C81.052 3.35822 81.0334 3.48109 81.0149 3.6263C81.1113 3.58907 81.1855 3.56673 81.2893 3.54066ZM78.2223 18.7696C78.2223 18.6876 78.2223 18.6243 78.2223 18.5573C78.226 17.8648 78.2223 17.1759 78.2408 16.4834C78.2742 14.9679 78.3298 13.4525 78.2631 11.937C78.2594 11.8775 78.2668 11.8142 78.2557 11.7546C78.2519 11.7285 78.2074 11.7099 78.1592 11.6727C78.1481 11.7434 78.1407 11.7769 78.1407 11.8142C78.1259 12.5179 78.0628 13.2179 77.9849 13.9179C77.9627 14.1264 77.9553 14.3387 77.9515 14.5509C77.9478 14.6663 77.9627 14.778 77.9627 14.8935C77.959 15.0312 77.9367 15.1727 77.9367 15.3105C77.933 16.4201 77.9367 17.5297 77.9367 18.6392C77.9367 18.6839 77.9441 18.7323 77.9515 18.7845C78.0183 18.7845 78.0739 18.7845 78.1296 18.7845C78.1518 18.7807 78.1741 18.7733 78.2223 18.7696ZM80.2361 4.94813C80.4326 4.87366 80.4734 4.81036 80.4549 4.60929C80.4178 4.66515 80.3807 4.71727 80.3399 4.77685C80.3177 4.68004 80.2991 4.60929 80.288 4.53482C80.2732 4.43801 80.2806 4.33376 80.2546 4.24067C80.2027 4.0545 80.1397 3.87205 80.0729 3.6896C80.0395 3.59279 79.9728 3.52577 79.8652 3.5146C79.7688 3.50343 79.6761 3.47364 79.5797 3.46247C79.3423 3.43641 79.1087 3.4662 78.8973 3.58907C78.7452 3.67843 78.6896 3.79386 78.7118 3.95397C78.7934 3.98375 78.8676 4.00237 78.9306 4.03961C79.0567 4.11407 79.1828 4.15131 79.3238 4.07684C79.3571 4.06195 79.3942 4.05822 79.4239 4.03961C79.6316 3.91673 79.8096 4.01727 80.0284 4.12897C79.8355 4.15876 79.6761 4.12152 79.524 4.19227C79.6316 4.23323 79.7391 4.27046 79.8504 4.31142C79.7317 4.49759 79.7317 4.49759 79.5166 4.46036C79.4647 4.37844 79.435 4.25184 79.283 4.30397C79.283 4.49014 79.283 4.67632 79.283 4.87366C79.3683 4.88111 79.4424 4.88855 79.5203 4.896C79.5129 4.93323 79.5018 4.98164 79.4944 5.0226C79.613 5.14919 79.7985 5.1976 79.8355 5.38005C80.0507 5.41356 80.1248 5.36515 80.1767 5.17526C80.2027 5.09334 80.2213 5.01515 80.2361 4.94813ZM76.1232 6.78006C76.0972 6.53804 76.138 6.32953 76.2381 6.13218C76.227 6.12474 76.2159 6.11729 76.2011 6.10984C76.0008 6.18431 75.8005 6.25878 75.5965 6.33325C75.6003 6.34442 75.6003 6.35187 75.604 6.36304C75.6522 6.37048 75.7004 6.37421 75.7597 6.38165C75.6151 6.48963 75.4964 6.60134 75.3592 6.68325C75.2294 6.75772 75.0996 6.83219 74.9957 6.94017C74.8066 6.91038 74.7547 7.14868 74.573 7.14496C74.5804 7.19337 74.5804 7.2306 74.5878 7.26411C74.6175 7.43167 74.6545 7.5955 74.6805 7.76305C74.6916 7.83008 74.7102 7.90454 74.6063 7.95667C74.5655 7.7221 74.5544 7.49124 74.4172 7.27901C74.3764 7.28645 74.3245 7.2939 74.2911 7.30135C74.3171 7.60667 74.4691 7.87476 74.4098 8.18008C74.3727 8.14657 74.3356 8.11306 74.3282 8.0721C74.2874 7.91572 74.2577 7.75561 74.2206 7.5955C74.2021 7.50614 74.1835 7.41677 74.165 7.32741C74.0204 7.36092 73.898 7.38699 73.7645 7.4205C73.7978 7.62156 73.8312 7.81518 73.8646 8.01252C73.9462 8.01997 74.0204 8.02742 74.0982 8.03114C74.1465 8.11678 74.191 8.19497 74.228 8.262C74.3356 8.29178 74.4135 8.262 74.4877 8.1987C74.6731 8.03487 74.8659 7.87848 75.0551 7.7221C75.1144 7.67369 75.1552 7.62156 75.1441 7.53592C75.1404 7.49497 75.1478 7.45401 75.1478 7.43167C75.2146 7.38326 75.2739 7.34975 75.3184 7.30879C75.4445 7.19709 75.5706 7.08166 75.693 6.96624C75.8116 6.85081 75.9266 6.754 76.1232 6.78006ZM80.7516 20.8547C80.6626 20.8845 80.6626 20.8845 80.5884 20.9962C80.5068 21.1153 80.3585 21.1637 80.199 21.1191C80.2583 21.026 80.403 21.0707 80.4475 20.9552C80.4846 20.8621 80.5402 20.7765 80.5958 20.6722C80.403 20.5717 80.225 20.635 80.0358 20.6611C80.0581 20.7728 80.2064 20.8063 80.1545 20.9105C80.1174 20.985 80.0395 21.0371 79.9654 21.1191C79.9728 21.201 79.9802 21.309 79.9876 21.4169C79.9913 21.4989 80.0284 21.5473 80.1026 21.5845C80.2287 21.6441 80.3436 21.7223 80.4697 21.7818C80.581 21.834 80.6626 21.901 80.6848 22.0276C80.696 22.0946 80.7405 22.1281 80.8035 22.1467C81.0594 22.2286 81.319 22.2733 81.586 22.2622C81.6676 22.2584 81.7455 22.2324 81.8308 22.2175C81.7974 22.0834 81.701 22.0313 81.6231 21.9755C81.4451 21.8414 81.3338 21.6739 81.2819 21.4579C81.2671 21.3983 81.2448 21.3425 81.2152 21.2903C81.1892 21.2457 81.1558 21.201 81.115 21.1675C81.0001 21.0632 80.8851 20.9701 80.7516 20.8547ZM80.7516 19.6855C80.7368 19.5999 80.7256 19.5403 80.7145 19.4807C80.7034 19.4137 80.696 19.3504 80.6848 19.2834C80.6552 19.1047 80.6181 19.0861 80.4475 19.101C80.2917 19.1121 80.136 19.1084 79.9802 19.1084C79.8912 19.1084 79.8059 19.101 79.7243 19.0972C79.7317 19.302 79.7317 19.4845 79.7428 19.6632C79.754 19.801 79.7688 19.9387 79.7985 20.0728C79.8355 20.2403 79.8801 20.2701 80.0507 20.2627C80.2917 20.2515 80.5328 20.2441 80.7738 20.2292C80.8258 20.2254 80.8777 20.2068 80.9296 20.1919C81.1744 20.1175 81.2597 19.8978 81.3969 19.6855C81.167 19.6855 80.9667 19.6855 80.7516 19.6855ZM79.3312 18.4903C79.4128 18.2557 79.4721 18.0509 79.5537 17.8536C79.639 17.6525 79.7836 17.4924 79.9802 17.3584C79.9023 17.3025 79.8393 17.2653 79.7873 17.2206C79.639 17.1015 79.4832 16.986 79.3423 16.852C79.079 16.6062 78.8824 16.3084 78.7081 15.9993C78.6859 15.9621 78.6599 15.9286 78.6339 15.8913C78.6191 15.8988 78.608 15.9025 78.5931 15.91C78.7304 16.7887 78.9492 17.6451 79.3312 18.4903ZM78.4225 10.6562C78.4374 10.6599 78.4522 10.6673 78.4708 10.6711C78.6525 10.7232 78.6822 10.7046 78.6822 10.511C78.6784 10.2429 78.6673 9.9785 78.6636 9.71042C78.6525 9.11466 78.6673 8.52264 78.7786 7.93806C78.8639 7.48752 79.0345 7.08539 79.3497 6.75028C79.3905 6.70559 79.4276 6.63485 79.435 6.57527C79.4461 6.41517 79.4387 6.25133 79.4387 6.08378C79.3534 6.08378 79.2867 6.08378 79.2014 6.08378C79.2014 6.16569 79.1977 6.23644 79.2014 6.30719C79.2088 6.42261 79.1828 6.50825 79.0901 6.59017C79.0011 6.66836 78.9381 6.78006 78.8824 6.88432C78.7341 7.14868 78.6488 7.43911 78.5931 7.73699C78.4819 8.33274 78.4448 8.93966 78.43 9.54286C78.4114 9.91148 78.4225 10.2764 78.4225 10.6562ZM78.315 11.6764C78.3335 11.8067 78.3484 11.8961 78.3595 11.9854C78.3892 12.22 78.43 12.4546 78.4374 12.6892C78.4559 13.2849 78.4151 13.8844 78.4893 14.4839C78.5301 14.8004 78.519 15.1243 78.6265 15.4334C78.6488 15.4929 78.6673 15.5525 78.6896 15.6084C78.7044 15.6046 78.7192 15.6046 78.7341 15.6009C78.7341 15.5451 78.7341 15.4855 78.7341 15.4296C78.7341 14.5137 78.7378 13.6014 78.7341 12.6855C78.7341 12.3876 78.7118 12.0934 78.7007 11.7955C78.7007 11.7546 78.6859 11.7136 78.6747 11.6503C78.5524 11.6578 78.4448 11.6652 78.315 11.6764ZM78.9084 6.0875C78.9047 6.13591 78.8973 6.17686 78.8973 6.21782C78.8973 6.35931 78.9047 6.5008 78.7341 6.5641C78.7155 6.57155 78.7081 6.60134 78.6933 6.62368C78.4151 7.08539 78.2186 7.57688 78.1926 8.1205C78.1741 8.45934 78.1629 8.79817 78.1592 9.13328C78.1518 9.61733 78.1518 10.1014 78.1481 10.5892C78.1481 10.6115 78.1592 10.6338 78.1667 10.6711C78.226 10.6562 78.2816 10.645 78.3447 10.6301C78.3447 10.537 78.3447 10.4588 78.3447 10.3806C78.341 9.75137 78.3484 9.11839 78.4151 8.49285C78.4745 7.93806 78.5894 7.39443 78.7971 6.87315C78.8416 6.76145 78.901 6.64602 78.9863 6.56783C79.1383 6.43006 79.1309 6.26623 79.1383 6.07633C79.0864 6.07633 79.0456 6.07633 79.0048 6.07633C78.9714 6.07633 78.9418 6.08378 78.9084 6.0875ZM78.9232 17.8722C78.9121 17.9057 78.8935 17.9392 78.8898 17.9727C78.849 18.4456 78.8416 18.9148 78.9788 19.3765C79.0493 19.6111 79.1494 19.8307 79.346 19.9909C79.4387 20.0653 79.5351 20.1175 79.6501 20.0802C79.6501 19.8419 79.6538 19.6148 79.6501 19.3839C79.6464 19.1866 79.6167 19.0004 79.4684 18.8515C79.4053 18.7882 79.3497 18.71 79.3126 18.6318C79.1865 18.386 79.0716 18.1366 78.9529 17.8871C78.9418 17.8834 78.9343 17.8834 78.9232 17.8722ZM81.3858 11.062C81.23 10.9764 81.1113 10.8982 80.9852 10.8461C80.8295 10.7828 80.6589 10.712 80.5031 10.8126C80.3065 10.9392 80.1471 11.1104 80.0507 11.3338C80.1026 11.386 80.1471 11.4083 80.1916 11.3413C80.2175 11.3003 80.2398 11.2556 80.2732 11.2221C80.377 11.1216 80.4512 10.9876 80.6366 10.9317C80.5031 11.1216 80.3585 11.2668 80.2843 11.4567C80.3807 11.4977 80.4289 11.453 80.4809 11.3897C80.5773 11.2743 80.6848 11.1663 80.7887 11.0583C80.8221 11.0248 80.8591 11.0099 80.8962 11.0732C80.7293 11.1961 80.6107 11.3599 80.5439 11.5647C80.6032 11.5498 80.6589 11.5275 80.696 11.4902C80.7553 11.4306 80.8035 11.3599 80.8591 11.2966C80.9111 11.2333 80.963 11.1663 81.0631 11.1551C81.0483 11.3338 80.9074 11.4269 80.848 11.5796C81.1225 11.2892 81.5082 11.2072 81.8308 11.0136C81.7121 10.7902 81.6417 10.5445 81.3598 10.4998C81.256 10.578 81.1521 10.6562 81.0372 10.7455C81.1002 10.8014 81.1521 10.8535 81.2078 10.8982C81.2523 10.9429 81.3524 10.9243 81.3858 11.062ZM74.0204 8.58594C74.0129 8.58966 74.0092 8.58966 74.0018 8.59338C73.9499 8.45561 73.8943 8.31785 73.8461 8.17636C73.8201 8.09444 73.7756 8.07955 73.7125 8.09444C73.7422 8.25827 73.7719 8.41093 73.8016 8.56732C73.7608 8.53381 73.7533 8.49285 73.7385 8.45561C73.6903 8.31412 73.6421 8.17263 73.5902 8.03114C73.5716 7.97901 73.5382 7.97157 73.4937 8.00508C73.5086 8.21731 73.6458 8.40349 73.6124 8.62317C73.5679 8.53008 73.5494 8.42955 73.5086 8.33646C73.4715 8.25455 73.5123 8.12795 73.3602 8.08327C73.4121 8.36253 73.4455 8.63434 73.6458 8.82796C73.8831 9.05881 74.139 9.27477 74.3912 9.49073C74.4469 9.53914 74.521 9.56892 74.5767 9.60616C74.6805 9.41626 74.6249 9.27477 74.4728 9.17052C74.6212 8.98434 74.6212 8.90615 74.4506 8.78328C74.2911 8.65668 74.1242 8.53753 74.0315 8.34019C74.0278 8.4221 74.0241 8.50402 74.0204 8.58594ZM81.256 3.63003C81.1262 3.67471 81.026 3.69705 80.9333 3.74173C80.874 3.77152 80.8146 3.82365 80.7775 3.8795C80.5921 4.15131 80.6144 4.44919 80.6885 4.75078C80.6997 4.79547 80.7256 4.84759 80.759 4.86621C80.8591 4.92206 80.9667 4.96674 81.0742 5.00026C81.1225 5.01515 81.1818 4.98909 81.2523 4.98164C81.1595 4.70983 81.1633 4.46036 81.2003 4.20344C81.2226 4.02844 81.2337 3.84599 81.256 3.63003ZM79.9579 11.2072C79.9134 11.2035 79.8689 11.1998 79.8207 11.1961C79.4721 11.1737 79.1235 11.1588 78.7786 11.129C78.5746 11.1104 78.3743 11.0844 78.2149 10.928C78.1629 10.8759 78.0739 10.8572 77.9849 10.82C78.0109 11.0397 78.0331 11.2296 78.0591 11.4306C78.1147 11.4418 78.1667 11.4642 78.2186 11.4642C78.5931 11.4642 78.964 11.4642 79.3349 11.4493C79.5018 11.4418 79.6687 11.4046 79.8355 11.3785C79.9283 11.3599 79.9839 11.3227 79.9579 11.2072ZM77.6252 12.3541C77.5362 12.2051 77.4509 12.0562 77.3656 11.9147C77.3248 11.8477 77.258 11.8179 77.1801 11.8365C77.1097 11.8514 77.08 11.937 77.1023 12.0376C77.1097 12.0785 77.1319 12.1158 77.1394 12.1567C77.1431 12.1679 77.1208 12.1828 77.1097 12.1977C77.0652 12.1604 77.0244 12.1307 76.9762 12.0897C76.9242 12.1456 76.8686 12.1865 76.8352 12.2424C76.6869 12.4918 76.6721 12.7636 76.7759 13.028C76.8204 13.1472 76.928 13.2216 77.0837 13.2551C77.0578 12.9349 77.0986 12.6482 77.3211 12.4174C77.4212 12.4658 77.5139 12.4099 77.6252 12.3541ZM74.7955 15.5413C74.9179 15.8429 75.1589 15.9584 75.3852 16.0924C75.7486 16.3009 76.1306 16.3121 76.5385 16.1967C76.5497 16.0887 76.5608 15.9844 76.5719 15.8467C75.9229 16.0775 75.3852 15.7871 74.7955 15.5413ZM82.4502 7.2306C82.4427 7.24177 82.439 7.25294 82.4316 7.26411C82.6393 7.38326 82.8433 7.50986 83.0547 7.62156C83.1882 7.69231 83.3254 7.75933 83.47 7.79656C83.6481 7.84497 83.8261 7.92689 84.0152 7.85614C84.1895 7.79284 84.3638 7.72582 84.5307 7.64763C84.5752 7.62901 84.5938 7.56199 84.6457 7.49124C84.5381 7.50614 84.4677 7.51358 84.3972 7.52848C84.1784 7.58433 83.9633 7.62156 83.7445 7.53592C83.6481 7.49869 83.5479 7.48752 83.4478 7.46145C83.114 7.38699 82.7802 7.30879 82.4502 7.2306ZM86.1292 5.12313C86.1032 4.95557 85.9548 4.99281 85.8733 4.92951C86.0327 4.88855 86.0327 4.88855 86.0216 4.76195C85.5358 4.85132 85.0462 4.92206 84.5604 5.0226C84.5826 5.13058 84.642 5.14175 84.7162 5.12685C84.8052 5.10824 84.8942 5.09334 84.9832 5.07845C85.1686 5.04494 85.3577 5.01515 85.5803 4.97419C85.4505 5.10079 85.3355 5.16409 85.1872 5.16409C85.0796 5.16409 84.9683 5.17526 84.8645 5.19387C84.7644 5.21249 84.6754 5.25717 84.6197 5.35771C84.6457 5.3726 84.6642 5.38749 84.6754 5.38377C85.1315 5.3093 85.5877 5.23483 86.0476 5.16036C86.0735 5.15664 86.0995 5.13802 86.1292 5.12313ZM81.8864 9.55031C81.5972 9.5168 81.4451 9.34924 81.3116 9.15935C81.2634 9.09232 81.2078 9.02158 81.1225 8.99551C81.1039 9.28594 81.0817 9.56148 81.0668 9.83701C81.0631 9.91148 81.0817 9.98595 81.0928 10.079C81.3784 9.9301 81.6676 9.84074 81.8864 9.55031ZM84.8497 7.08539C84.8608 7.08911 84.8719 7.09656 84.883 7.10028C84.9127 7.05188 84.9535 7.01092 84.972 6.95879C85.0833 6.6907 85.1983 6.42634 85.291 6.15452C85.3689 5.92739 85.4208 5.69282 85.4876 5.46196C85.1946 5.42473 85.1204 5.47313 85.0685 5.75612C84.998 6.14335 84.9313 6.52687 84.8645 6.91411C84.8571 6.96996 84.8571 7.02953 84.8497 7.08539ZM76.6238 6.404C76.5423 6.39282 76.4681 6.3891 76.3939 6.37421C76.3086 6.35931 76.2678 6.40027 76.253 6.47474C76.2456 6.52315 76.2419 6.57155 76.253 6.61996C76.2752 6.71304 76.3531 6.754 76.4347 6.77634C76.5089 6.79496 76.5868 6.79496 76.6276 6.69815C76.6424 6.66091 76.6758 6.63113 76.698 6.60134C76.9094 6.72793 77.0911 6.5641 77.2914 6.58272C77.3025 6.44868 77.3137 6.33697 77.3248 6.22155C77.0874 6.23644 76.8872 6.35559 76.6572 6.32208C76.6276 6.24761 76.5979 6.17687 76.5645 6.09867C76.4829 6.11729 76.4087 6.13591 76.3939 6.24389C76.4829 6.26995 76.5942 6.26623 76.6238 6.404ZM82.3982 5.8641C82.4613 5.85665 82.5058 5.85293 82.5466 5.84548C82.9063 5.77473 83.2624 5.6742 83.6332 5.66303C83.6851 5.66303 83.7519 5.65931 83.789 5.62952C83.8854 5.54388 84.0078 5.53643 84.1228 5.4992C84.1784 5.48058 84.2859 5.51409 84.2748 5.41728C84.2637 5.30558 84.1599 5.36143 84.0968 5.36515C83.522 5.39122 82.9657 5.53271 82.4131 5.68165C82.3982 5.68537 82.3834 5.70026 82.3611 5.71516C82.3723 5.75984 82.3834 5.80452 82.3982 5.8641ZM80.2583 5.70771C80.3733 5.73005 80.4809 5.66303 80.5624 5.76356C80.5736 5.77846 80.6181 5.76356 80.6477 5.75984C80.9222 5.73005 81.1966 5.70026 81.4711 5.66675C81.6305 5.64814 81.79 5.62207 81.968 5.59601C81.9458 5.52154 81.9309 5.46941 81.9087 5.39866C81.3524 5.45452 80.8035 5.51037 80.2583 5.56622C80.2583 5.62952 80.2583 5.66303 80.2583 5.70771ZM80.555 6.10612C80.6181 6.10612 80.67 6.10612 80.7219 6.10612C81.0483 6.09123 81.3672 6.04282 81.6862 5.98697C81.7678 5.97208 81.8568 5.97208 81.9347 5.94973C81.9717 5.93856 82.0274 5.89388 82.0274 5.8641C82.0274 5.80452 81.9903 5.74867 81.9161 5.74867C81.8864 5.74867 81.8568 5.74867 81.8271 5.75239C81.5044 5.78218 81.1781 5.81197 80.8554 5.84175C80.7553 5.85292 80.6552 5.86037 80.5587 5.87154C80.555 5.95718 80.555 6.02793 80.555 6.10612ZM81.5119 11.6205C81.2745 11.7397 81.2485 11.7844 81.2893 12.019C81.3153 12.1753 81.3858 12.3019 81.4896 12.4285C81.6417 12.611 81.7492 12.8344 81.879 13.0392C81.9309 13.1211 81.9347 13.1956 81.8642 13.2775C81.8345 13.2216 81.816 13.136 81.7233 13.1993C81.6973 13.2886 81.7047 13.3706 81.8048 13.4041C81.8753 13.4301 82.0237 13.3668 82.0274 13.2924C82.0385 13.1807 82.057 13.0466 82.0051 12.9573C81.8864 12.7413 81.7418 12.5365 81.586 12.3466C81.5193 12.2684 81.4562 12.1977 81.4191 12.1009C81.3932 12.0376 81.3709 11.9854 81.4154 11.9147C81.4674 11.8328 81.5378 11.8998 81.5972 11.8737C81.6157 11.8253 81.6305 11.7769 81.6491 11.7248C81.6046 11.6913 81.5601 11.6578 81.5119 11.6205ZM82.2758 5.36143C82.2647 5.45824 82.3055 5.4843 82.3797 5.47686C82.4984 5.46569 82.6208 5.45824 82.7394 5.44335C83.1288 5.39122 83.5145 5.33537 83.9002 5.27579C84.0041 5.2609 84.1042 5.22366 84.2118 5.19387C84.1784 5.07472 84.1153 5.05611 84.0152 5.07472C83.6666 5.13802 83.3143 5.18643 82.962 5.246C82.7357 5.27951 82.5058 5.32047 82.2758 5.36143ZM81.7307 12.2386C81.7307 12.369 81.7752 12.4583 81.8753 12.5104C81.9866 12.4323 82.083 12.3578 82.1906 12.2908C82.2981 12.2275 82.4131 12.1791 82.5355 12.1158C82.5021 12.0338 82.465 11.9333 82.4316 11.844C82.146 11.8998 81.9384 12.0599 81.7307 12.2386ZM78.697 4.41567C78.7267 4.64653 78.6673 4.88855 78.8305 5.11196C78.9306 5.04494 79.0122 4.98909 79.1012 4.92951C78.9974 4.7061 79.2125 4.49014 79.0938 4.25184C79.0419 4.31886 79.0048 4.37099 78.9566 4.43429C78.8787 4.43057 78.7971 4.42312 78.697 4.41567ZM74.9624 10.254C75.0959 9.98968 75.081 9.72531 75.0959 9.45722C74.9883 9.43116 74.8919 9.40509 74.7806 9.37903C74.7584 9.47584 74.7361 9.55403 74.7213 9.63595C74.6953 9.77744 74.6434 9.92265 74.814 10.0157C74.8437 10.0344 74.8548 10.0865 74.8771 10.1237C74.903 10.161 74.929 10.2019 74.9624 10.254ZM79.7095 5.53271C79.6316 5.3726 79.5537 5.20877 79.3608 5.15292C79.3015 5.13802 79.2273 5.13058 79.1717 5.15292C79.0938 5.18643 79.0308 5.24973 78.9492 5.3093C79.0011 5.42101 79.053 5.53271 79.1087 5.65186C79.2088 5.65186 79.2978 5.66675 79.3794 5.64814C79.4869 5.62579 79.5908 5.57739 79.7095 5.53271ZM80.8406 19.5105C81.0557 19.3988 81.2597 19.2908 81.4599 19.1866C81.4711 19.1829 81.4822 19.1754 81.4896 19.168C81.5415 19.1158 81.5304 19.0525 81.4599 19.0265C81.434 19.0153 81.4006 19.019 81.3709 19.019C81.2152 19.0228 81.0557 19.0302 80.8999 19.0377C80.8554 19.0414 80.8109 19.0525 80.759 19.0637C80.7887 19.2164 80.8146 19.3579 80.8406 19.5105ZM78.7192 6.02793C78.7192 5.92739 78.7192 5.84548 78.7192 5.7375C78.4337 5.75984 78.1741 5.85293 77.8848 5.90878C77.8996 5.98325 77.9145 6.04654 77.9293 6.11729C78.2037 6.08378 78.4522 6.05771 78.7192 6.02793ZM76.3531 6.10984C76.4607 5.99069 76.5608 5.87899 76.6721 5.75984C76.609 5.74867 76.5608 5.7375 76.494 5.72633C76.5274 5.69654 76.546 5.67792 76.5719 5.65186C76.4718 5.60345 76.3902 5.63324 76.3272 5.70771C76.2641 5.78218 76.1862 5.78963 76.1009 5.77846C76.0268 5.76729 75.9489 5.75984 75.8562 5.74495C75.8673 5.81941 75.8747 5.87527 75.8858 5.94229C75.9637 5.94229 76.0305 5.94601 76.0935 5.94229C76.2233 5.92739 76.3197 5.96463 76.3531 6.10984ZM78.7304 6.28112C78.7267 6.20665 78.7229 6.1508 78.7155 6.09123C78.4448 6.13591 78.1963 6.17314 77.9441 6.2141C77.9441 6.29602 77.9441 6.36676 77.9441 6.43378C78.2074 6.38538 78.4596 6.33325 78.7304 6.28112ZM75.5817 7.27901C75.7671 7.21571 75.9155 7.14496 76.0713 7.11517C76.3642 7.0556 76.6016 6.88432 76.8575 6.73911C76.8093 6.73538 76.7536 6.73166 76.724 6.75772C76.6238 6.85081 76.4978 6.86198 76.3754 6.87687C76.227 6.89921 76.0787 6.91783 75.9303 6.95134C75.871 6.96624 75.8079 6.99975 75.7634 7.04443C75.7004 7.11145 75.6522 7.18964 75.5817 7.27901ZM81.8568 19.5291C81.7455 19.5552 81.638 19.5403 81.586 19.6371C81.4822 19.8233 81.3858 20.0169 81.2856 20.2105C81.5304 20.2292 81.6862 20.0467 81.8568 19.5291ZM75.0959 6.60878C74.9624 6.68325 74.8363 6.74283 74.7213 6.82474C74.4839 6.9923 74.2243 7.09656 73.9499 7.1673C73.8386 7.19709 73.7311 7.22315 73.6198 7.25294C74.0537 7.2939 74.4432 7.15613 74.9809 6.8024C75.0402 6.76145 75.107 6.72794 75.0959 6.60878ZM77.5621 6.17687C77.5807 6.00931 77.5473 5.95718 77.4064 5.96091C77.1616 5.96463 76.9242 6.0242 76.6498 6.09495C76.7054 6.13963 76.7388 6.18431 76.7722 6.18804C76.8427 6.19548 76.9168 6.18431 76.9873 6.16942C77.1764 6.13218 77.3693 6.0875 77.5621 6.17687ZM79.7688 5.90133C79.7577 5.81197 79.7465 5.74495 79.7391 5.68909C79.5314 5.59973 79.3979 5.82686 79.2014 5.75984C79.2051 5.82314 79.2088 5.87527 79.2125 5.94229C79.4016 5.92739 79.5759 5.91622 79.7688 5.90133ZM81.345 12.9349C81.4229 12.8865 81.4748 12.8493 81.5304 12.8195C81.6009 12.7823 81.6046 12.7264 81.5786 12.6668C81.5638 12.6296 81.5341 12.5961 81.5082 12.5626C81.4711 12.5067 81.4117 12.4695 81.3561 12.5104C81.3153 12.5402 81.2708 12.6073 81.2708 12.6519C81.2782 12.745 81.319 12.8307 81.345 12.9349ZM77.7735 6.50453C77.7995 6.41889 77.8292 6.35559 77.8329 6.29602C77.8366 6.20665 77.8143 6.11729 77.8069 6.0242C77.7995 5.92367 77.7439 5.90878 77.6734 5.92367C77.666 6.0242 77.6549 6.11357 77.6511 6.19921C77.6437 6.30719 77.6437 6.41144 77.7735 6.50453ZM79.8726 5.53271C79.8726 5.64814 79.8726 5.74494 79.8726 5.85665C79.9616 5.82686 80.0358 5.79707 80.1063 5.77473C80.1063 5.66303 80.1063 5.56622 80.1063 5.45079C80.021 5.48058 79.9505 5.50292 79.8726 5.53271ZM73.4604 7.42422C73.4752 7.54337 73.4863 7.65135 73.5049 7.75561C73.5308 7.8971 73.5382 7.90082 73.7088 7.86359C73.694 7.7705 73.6755 7.67741 73.6606 7.58433C73.6421 7.47635 73.5865 7.42422 73.4604 7.42422ZM79.0864 5.93112C79.142 5.71888 79.0159 5.6109 78.8639 5.51037C78.8787 5.64814 78.8898 5.7859 78.9047 5.93112C78.9714 5.93112 79.0234 5.93112 79.0864 5.93112ZM79.168 7.98646C79.0753 7.98646 78.9937 7.98646 78.9047 7.98646C78.9047 8.05721 78.9047 8.11678 78.9047 8.16891C79.1457 8.25455 79.1977 8.22104 79.168 7.98646ZM82.0978 5.43218C82.083 5.4359 82.0682 5.4359 82.057 5.43962C82.0719 5.58856 82.083 5.7375 82.0978 5.89761C82.1646 5.89016 82.2054 5.88644 82.2499 5.88644C82.2796 5.69654 82.2128 5.55505 82.0978 5.43218ZM78.6896 4.09546C78.6747 4.18482 78.6636 4.25557 78.6488 4.33376C78.786 4.32631 78.8898 4.31886 78.99 4.21461C78.8898 4.17365 78.8082 4.14014 78.6896 4.09546ZM86.2256 4.97791C86.2404 4.98536 86.2552 4.98909 86.2701 4.99653C86.2886 4.96674 86.3294 4.92951 86.3257 4.90345C86.3035 4.79919 86.3146 4.68004 86.207 4.58695C86.1069 4.73961 86.2219 4.85504 86.2256 4.97791ZM82.5725 11.7509C82.5837 11.9035 82.6096 12.0003 82.7135 12.0748C82.7469 12.0152 82.7691 11.9668 82.7988 11.9073C82.732 11.8626 82.669 11.8179 82.5725 11.7509ZM84.4677 5.42845C84.4862 5.42473 84.5048 5.42101 84.5233 5.41356C84.501 5.30558 84.4862 5.1976 84.4565 5.08962C84.438 5.0226 84.3935 5.04494 84.3379 5.08217C84.4157 5.18643 84.3379 5.34654 84.4677 5.42845ZM77.4064 6.26995C77.4175 6.5008 77.4212 6.50453 77.577 6.46357C77.6029 6.33325 77.4954 6.3258 77.4064 6.26995ZM80.581 4.31886C80.5773 4.30769 80.5699 4.2928 80.5662 4.28163C80.4401 4.26301 80.4401 4.26301 80.403 4.41195C80.466 4.38216 80.5217 4.35238 80.581 4.31886ZM77.6104 11.8328C77.5955 11.8328 77.5844 11.8291 77.5696 11.8291C77.5584 11.8551 77.5399 11.8775 77.5362 11.9035C77.5362 11.9259 77.551 11.9519 77.5584 11.978C77.5807 11.9557 77.6104 11.9408 77.6215 11.9147C77.6326 11.8886 77.6178 11.8588 77.6104 11.8328ZM77.6252 6.59389C77.6289 6.60506 77.6326 6.61996 77.6363 6.63113C77.6957 6.61623 77.7513 6.60134 77.8106 6.58644C77.8069 6.57155 77.8032 6.55666 77.7995 6.54176C77.7402 6.56038 77.6845 6.57527 77.6252 6.59389Z" fill="black"/>
<path d="M79.8244 12.1235C79.8652 12.265 79.9023 12.3953 79.9357 12.5219C80.0136 12.8273 80.0877 13.1326 80.1693 13.4342C80.2176 13.6017 80.2769 13.7693 80.4401 13.8847C80.2843 14.0411 80.0989 14.1193 79.8875 14.1416C79.7948 13.8549 79.6909 13.5757 79.6167 13.2927C79.5463 13.0283 79.4795 12.7677 79.372 12.5182C79.2867 12.3283 79.3312 12.2576 79.5352 12.2203C79.5834 12.2129 79.6316 12.2055 79.6761 12.1906C79.7169 12.1794 79.7614 12.1533 79.8244 12.1235ZM79.4202 12.414C79.613 12.9315 79.8281 13.4267 79.9134 13.989C80.0321 13.922 80.1248 13.8661 80.2176 13.814C80.0655 13.3001 79.9171 12.8049 79.7651 12.2948C79.6464 12.3358 79.5352 12.373 79.4202 12.414Z" fill="black"/>
<path d="M79.0011 10.0344C78.7674 9.94504 78.7266 9.7961 78.8305 9.58759C78.8787 9.57642 78.9417 9.5578 79.0048 9.54663C79.0975 9.53174 79.1865 9.58014 79.2273 9.65833C79.2644 9.7328 79.2384 9.82961 79.1643 9.89663C79.1086 9.94504 79.053 9.98972 79.0011 10.0344ZM78.9417 9.65089C78.9269 9.69557 78.9158 9.74025 78.9046 9.78493C78.8898 9.83706 78.9009 9.88174 78.964 9.89663C79.0307 9.91525 79.0715 9.87802 79.0938 9.82589C79.1309 9.75142 79.0901 9.70302 78.9417 9.65089Z" fill="black"/>
<path d="M78.8119 8.75015C78.8156 8.53419 78.8676 8.44482 78.9825 8.44482C79.116 8.44855 79.2718 8.5528 79.2718 8.63844C79.2755 8.77993 79.1049 8.95121 78.9714 8.94377C78.8713 8.94004 78.8082 8.86557 78.8119 8.75015ZM79.1828 8.65334C79.116 8.59004 79.0567 8.53046 78.9825 8.45972C78.8935 8.56025 78.8861 8.66078 78.8972 8.76132C78.9083 8.85068 78.9825 8.88047 79.0493 8.81717C79.0975 8.77249 79.1309 8.71664 79.1828 8.65334Z" fill="black"/>
<path d="M78.9009 8.97363C79.0011 9.00342 79.0975 9.03321 79.1902 9.05927C79.1939 9.12257 79.2013 9.16353 79.1976 9.20449C79.1828 9.43534 79.027 9.45023 78.8676 9.39811C78.7823 9.36832 78.76 9.31247 78.7934 9.22683C78.8194 9.15236 78.8564 9.08161 78.9009 8.97363ZM78.9788 9.3497C79.1049 9.27896 79.1049 9.27896 79.0752 9.12629C79.0196 9.13002 78.964 9.13374 78.9121 9.13746C78.8824 9.23427 78.8935 9.30502 78.9788 9.3497Z" fill="black"/>
<path d="M78.8194 10.4593C78.812 10.3252 78.7823 10.1949 78.9121 10.0869C79.0011 10.113 79.0976 10.1428 79.1866 10.1688C79.1717 10.4704 79.1087 10.5188 78.8194 10.4593ZM79.0901 10.3699C79.0864 10.2359 79.0864 10.2359 78.9344 10.2098C78.927 10.2619 78.9158 10.3103 78.9084 10.3699C78.9752 10.3699 79.0308 10.3699 79.0901 10.3699Z" fill="black"/>
<path d="M83.3995 10.1242C83.444 9.97524 83.4811 9.85237 83.5219 9.72949C83.5553 9.86354 83.5553 9.99013 83.496 10.1056C83.4848 10.1167 83.444 10.113 83.3995 10.1242Z" fill="black"/>
<path d="M78.048 21.071C78.1741 21.1045 78.3039 21.1417 78.43 21.1715C78.519 21.1901 78.5375 21.2385 78.5041 21.3093C78.378 21.2534 78.2557 21.2013 78.1333 21.1455C78.0999 21.1306 78.0776 21.0933 78.048 21.071C78.0517 21.0673 78.048 21.071 78.048 21.071Z" fill="black"/>
<path d="M79.4276 5.287C79.3534 5.40243 79.2644 5.4769 79.1198 5.39871C79.1754 5.22371 79.3237 5.30934 79.4276 5.287Z" fill="black"/>
</g>
<defs>
<clipPath id="clip0">
<rect width="13.1509" height="20.129" fill="white" transform="translate(73.249 2.32715)"/>
</clipPath>
</defs>
</svg>
